<?xml version="1.0" encoding="UTF-8"?>
<svg version="1.1" xmlns="http://www.w3.org/2000/svg" width="144" height="144">
<path d="M0 0 C47.52 0 95.04 0 144 0 C144 47.52 144 95.04 144 144 C96.48 144 48.96 144 0 144 C0 96.48 0 48.96 0 0 Z " fill="#FDFDFD" transform="translate(0,0)"/>
<path d="M0 0 C-0.19730867 7.9820325 -1.97304373 15.29959437 -4.18432617 22.92114258 C-5.78964071 28.60006905 -6.5850233 34.11522781 -7 40 C-6.29915283 40.01981934 -5.59830566 40.03963867 -4.8762207 40.06005859 C-1.68794838 40.15556166 1.49969147 40.26513871 4.6875 40.375 C5.79029297 40.4059375 6.89308594 40.436875 8.02929688 40.46875 C9.6293457 40.52675781 9.6293457 40.52675781 11.26171875 40.5859375 C12.24100342 40.6173584 13.22028809 40.6487793 14.22924805 40.68115234 C17.12422801 41.01429569 19.35772167 41.79800587 22 43 C21.75 45.375 21.75 45.375 21 48 C17.88009219 50.10402016 15.27924033 50.236436 11.578125 50.1953125 C10.55332031 50.18886719 9.52851562 50.18242188 8.47265625 50.17578125 C7.40917969 50.15902344 6.34570312 50.14226563 5.25 50.125 C4.17105469 50.11597656 3.09210938 50.10695312 1.98046875 50.09765625 C-0.67978249 50.0741142 -3.33991949 50.03824397 -6 50 C-6 53.3 -6 56.6 -6 60 C-4.865625 59.34 -3.73125 58.68 -2.5625 58 C1.94456888 55.74246284 6.02094548 55.19511525 11 56 C11.62519531 56.39832031 12.25039062 56.79664063 12.89453125 57.20703125 C15.13055326 58.32102085 15.13055326 58.32102085 17.83984375 56.84765625 C18.86207031 56.25855469 19.88429688 55.66945312 20.9375 55.0625 C26.37753378 51.93327703 26.37753378 51.93327703 29.87890625 52.30859375 C30.57886719 52.53675781 31.27882813 52.76492187 32 53 C30.50937009 57.47188973 27.54815254 58.45801155 23.5 60.5 C19.89257174 62.49112561 17.38260984 64.03597325 15.8046875 68.01171875 C15.32654808 71.14623534 15.32654808 71.14623534 15.2734375 74.16796875 C14.95007286 77.51710252 13.99900423 79.31875805 12 82 C9.4375 82.9375 9.4375 82.9375 7 83 C6.34 82.34 5.68 81.68 5 81 C1.91652174 80.83318891 1.91652174 80.83318891 -1 81 C1.56864051 90.45938912 1.56864051 90.45938912 8.1875 97.125 C9.19876953 97.59292969 9.19876953 97.59292969 10.23046875 98.0703125 C12 99 12 99 14 102 C14.39509739 106.74116871 14.33539306 109.22188809 12.4375 113.625 C10.82706112 117.40603042 10.82533025 119.11455391 12 123 C12.66 123.66 13.32 124.32 14 125 C14 125.99 14 126.98 14 128 C13.33282959 127.96334229 12.66565918 127.92668457 11.97827148 127.88891602 C-1.78601312 127.23851446 -13.51106864 127.81216463 -26.56347656 132.35400391 C-39.6695635 136.81007347 -53.25952349 137.14853578 -67 137 C-67.61328125 135.12109375 -67.61328125 135.12109375 -68 133 C-66.71182656 131.62298702 -65.37195574 130.29355827 -64 129 C-62.74563813 126.36777038 -62.74563813 126.36777038 -62 124 C-65.465 124.495 -65.465 124.495 -69 125 C-69.99 123.68 -70.98 122.36 -72 121 C-72.515625 121.495 -73.03125 121.99 -73.5625 122.5 C-76.98089322 124.60362659 -79.0264922 124.46357591 -83 124 C-85.99005722 123.05829159 -88.52014594 121.93344554 -91 120 C-92.60481387 116.28358894 -92.07569664 113.66597905 -90.875 109.9375 C-89.25395137 106.11593286 -87.37766323 103.51360985 -84 101 C-80.6875 100.6875 -80.6875 100.6875 -78 101 C-78.20625 99.783125 -78.4125 98.56625 -78.625 97.3125 C-79.05883708 93.66049834 -79.18503238 91.13504646 -77 88 C-74.3125 86.8125 -74.3125 86.8125 -71 87 C-68.32473538 88.67271054 -66.05241517 90.60146748 -64 93 C-64 93.66 -64 94.32 -64 95 C-63.44570313 94.71125 -62.89140625 94.4225 -62.3203125 94.125 C-61.59585938 93.75375 -60.87140625 93.3825 -60.125 93 C-59.40570313 92.62875 -58.68640625 92.2575 -57.9453125 91.875 C-56 91 -56 91 -54 91 C-54.0407666 89.93563721 -54.0815332 88.87127441 -54.12353516 87.7746582 C-54.27233265 83.81471491 -54.40684416 79.85439149 -54.53710938 75.89379883 C-54.59540297 74.18174822 -54.65753763 72.46982381 -54.72363281 70.75805664 C-54.81812577 68.29336532 -54.89866237 65.82854604 -54.9765625 63.36328125 C-55.02485703 62.22080681 -55.02485703 62.22080681 -55.0741272 61.05525208 C-55.19091843 56.88444052 -54.89629064 53.74404142 -53 50 C-53.94875 50.061875 -54.8975 50.12375 -55.875 50.1875 C-63.74423119 50.15564076 -71.32325035 47.42993445 -77 42 C-77.625 38.3125 -77.625 38.3125 -77 35 C-73.30448425 32.53632283 -71.6726169 32.83999863 -67.28515625 33.015625 C-65.94599383 33.05065687 -64.60679917 33.08447352 -63.26757812 33.1171875 C-61.16225756 33.17911592 -59.058553 33.2501737 -56.9543457 33.34277344 C-54.91857988 33.42762681 -52.88470949 33.47435089 -50.84765625 33.515625 C-49.0224646 33.58185059 -49.0224646 33.58185059 -47.16040039 33.64941406 C-43.72528169 33.29592092 -43.72528169 33.29592092 -41.67944336 30.078125 C-40.8481189 28.55445313 -40.8481189 28.55445313 -40 27 C-38.28125 25.234375 -38.28125 25.234375 -36.5 23.75 C-35.80519531 23.16734375 -35.11039063 22.5846875 -34.39453125 21.984375 C-33.60433594 21.32953125 -32.81414062 20.6746875 -32 20 C-30.61361328 18.80117188 -30.61361328 18.80117188 -29.19921875 17.578125 C-8.66477273 0 -8.66477273 0 0 0 Z " fill="#703292" transform="translate(105,3)"/>
<path d="M0 0 C-0.19730867 7.9820325 -1.97304373 15.29959437 -4.18432617 22.92114258 C-5.78964071 28.60006905 -6.5850233 34.11522781 -7 40 C-6.29915283 40.01981934 -5.59830566 40.03963867 -4.8762207 40.06005859 C-1.68794838 40.15556166 1.49969147 40.26513871 4.6875 40.375 C5.79029297 40.4059375 6.89308594 40.436875 8.02929688 40.46875 C9.6293457 40.52675781 9.6293457 40.52675781 11.26171875 40.5859375 C12.24100342 40.6173584 13.22028809 40.6487793 14.22924805 40.68115234 C17.12422801 41.01429569 19.35772167 41.79800587 22 43 C21.75 45.375 21.75 45.375 21 48 C17.88009219 50.10402016 15.27924033 50.236436 11.578125 50.1953125 C10.55332031 50.18886719 9.52851562 50.18242188 8.47265625 50.17578125 C7.40917969 50.15902344 6.34570312 50.14226563 5.25 50.125 C4.17105469 50.11597656 3.09210938 50.10695312 1.98046875 50.09765625 C-0.67978249 50.0741142 -3.33991949 50.03824397 -6 50 C-6 53.3 -6 56.6 -6 60 C-4.865625 59.34 -3.73125 58.68 -2.5625 58 C1.94456888 55.74246284 6.02094548 55.19511525 11 56 C11.62519531 56.39832031 12.25039062 56.79664063 12.89453125 57.20703125 C15.13055326 58.32102085 15.13055326 58.32102085 17.83984375 56.84765625 C18.86207031 56.25855469 19.88429688 55.66945312 20.9375 55.0625 C26.37753378 51.93327703 26.37753378 51.93327703 29.87890625 52.30859375 C30.57886719 52.53675781 31.27882813 52.76492187 32 53 C30.50937009 57.47188973 27.54815254 58.45801155 23.5 60.5 C19.89257174 62.49112561 17.38260984 64.03597325 15.8046875 68.01171875 C15.32654808 71.14623534 15.32654808 71.14623534 15.2734375 74.16796875 C14.95007286 77.51710252 13.99900423 79.31875805 12 82 C9.4375 82.9375 9.4375 82.9375 7 83 C6.34 82.34 5.68 81.68 5 81 C1.91652174 80.83318891 1.91652174 80.83318891 -1 81 C1.56864051 90.45938912 1.56864051 90.45938912 8.1875 97.125 C9.19876953 97.59292969 9.19876953 97.59292969 10.23046875 98.0703125 C12 99 12 99 14 102 C14.39509739 106.74116871 14.33539306 109.22188809 12.4375 113.625 C10.82706112 117.40603042 10.82533025 119.11455391 12 123 C12.66 123.66 13.32 124.32 14 125 C14 125.99 14 126.98 14 128 C13.26475098 127.98952637 12.52950195 127.97905273 11.77197266 127.96826172 C8.38968424 127.92628202 5.00745093 127.9005417 1.625 127.875 C-0.10943359 127.84986328 -0.10943359 127.84986328 -1.87890625 127.82421875 C-8.84367123 127.7848698 -15.24033792 128.2864189 -22 130 C-21.34 129.67 -20.68 129.34 -20 129 C-20 128.01 -20 127.02 -20 126 C-16.66805501 125.49045093 -13.33426366 124.99412986 -10 124.5 C-9.06542969 124.35691406 -8.13085938 124.21382813 -7.16796875 124.06640625 C-1.71059609 123.2649739 3.48470461 122.84390673 9 123 C8.773125 122.13375 8.54625 121.2675 8.3125 120.375 C8 117 8 117 9.4375 114.25 C11.56525331 109.82427312 11.89804779 105.8323524 11 101 C8.21368159 98.29811548 6.27480436 98.0337479 2.4375 97.5625 C-1 96 -1 96 -2.3359375 93.27734375 C-5 85.35128546 -5 85.35128546 -5 82 C-6.485 81.505 -6.485 81.505 -8 81 C-6.35 79.02 -4.7 77.04 -3 75 C-3.639375 75.28875 -4.27875 75.5775 -4.9375 75.875 C-8.21107826 77.07753895 -11.3911269 77.72839874 -14.81640625 78.33984375 C-17.35671534 79.10784417 -18.97300281 80.31313386 -21 82 C-20.80083984 80.22109375 -20.80083984 80.22109375 -20.59765625 78.40625 C-19.44878627 67.94371476 -18.55096195 57.51177398 -18 47 C-19.32 47 -20.64 47 -22 47 C-21.505 49.475 -21.505 49.475 -21 52 C-21.37125 51.484375 -21.7425 50.96875 -22.125 50.4375 C-24.03173152 48.63680017 -24.03173152 48.63680017 -27.1875 49.3125 C-28.5796875 49.6528125 -28.5796875 49.6528125 -30 50 C-30.33 49.34 -30.66 48.68 -31 48 C-29.02 47.505 -29.02 47.505 -27 47 C-27 46.34 -27 45.68 -27 45 C-31.29 45 -35.58 45 -40 45 C-39.01 46.65 -38.02 48.3 -37 50 C-37.495 50.99 -37.495 50.99 -38 52 C-38.66 51.01 -39.32 50.02 -40 49 C-43.93075644 49.57452746 -43.93075644 49.57452746 -47 52 C-47.33 51.34 -47.66 50.68 -48 50 C-48.33 51.65 -48.66 53.3 -49 55 C-47.515 54.505 -47.515 54.505 -46 54 C-46 54.66 -46 55.32 -46 56 C-43.13275314 55.42655063 -42.1385485 55.1385485 -40 53 C-37.56230782 56.65653827 -37.76055561 58.69000101 -38 63 C-39.66342837 64.66342837 -41.7825709 64.36048097 -44.0625 64.5625 C-45.44115234 64.68818359 -45.44115234 64.68818359 -46.84765625 64.81640625 C-47.55792969 64.87699219 -48.26820312 64.93757813 -49 65 C-48.44533807 73.43478451 -48.44533807 73.43478451 -47.375 81.8125 C-46.90986725 85.76612833 -47.38008181 89.07385147 -48 93 C-45.69 93 -43.38 93 -41 93 C-41 93.33 -41 93.66 -41 94 C-41.80824219 94.01417969 -42.61648437 94.02835937 -43.44921875 94.04296875 C-50.24683486 94.22454268 -50.24683486 94.22454268 -56.0625 97.375 C-56.701875 98.24125 -57.34125 99.1075 -58 100 C-59 101 -60 102 -61 103 C-61.495 102.01 -61.495 102.01 -62 101 C-62 103.64 -62 106.28 -62 109 C-62.66 108.67 -63.32 108.34 -64 108 C-64 106.35 -64 104.7 -64 103 C-64.99 102.67 -65.98 102.34 -67 102 C-66.01 102 -65.02 102 -64 102 C-64.45082469 100.53932801 -64.91093537 99.08151968 -65.375 97.625 C-65.63023438 96.81289062 -65.88546875 96.00078125 -66.1484375 95.1640625 C-66.89854283 92.83540815 -66.89854283 92.83540815 -69 91 C-69.99 91.99 -69.99 91.99 -71 93 C-71 91.68 -71 90.36 -71 89 C-71.99 89 -72.98 89 -74 89 C-73.67 90.65 -73.34 92.3 -73 94 C-73.66 93.34 -74.32 92.68 -75 92 C-75.99 93.65 -76.98 95.3 -78 97 C-78.95178554 94.43017905 -79.00609339 93.02911288 -78.4375 90.3125 C-77 88 -77 88 -74.3125 86.8125 C-70.02175763 87.05537221 -68.41535048 88.63666115 -65.3203125 91.45703125 C-64 93 -64 93 -64 95 C-63.44570313 94.71125 -62.89140625 94.4225 -62.3203125 94.125 C-61.59585938 93.75375 -60.87140625 93.3825 -60.125 93 C-59.04605469 92.443125 -59.04605469 92.443125 -57.9453125 91.875 C-56 91 -56 91 -54 91 C-54.0407666 89.93563721 -54.0815332 88.87127441 -54.12353516 87.7746582 C-54.27233265 83.81471491 -54.40684416 79.85439149 -54.53710938 75.89379883 C-54.59540297 74.18174822 -54.65753763 72.46982381 -54.72363281 70.75805664 C-54.81812577 68.29336532 -54.89866237 65.82854604 -54.9765625 63.36328125 C-55.02485703 62.22080681 -55.02485703 62.22080681 -55.0741272 61.05525208 C-55.19091843 56.88444052 -54.89629064 53.74404142 -53 50 C-54.423125 50.0928125 -54.423125 50.0928125 -55.875 50.1875 C-63.74423119 50.15564076 -71.32325035 47.42993445 -77 42 C-77.625 38.3125 -77.625 38.3125 -77 35 C-73.30448425 32.53632283 -71.6726169 32.83999863 -67.28515625 33.015625 C-65.94599383 33.05065687 -64.60679917 33.08447352 -63.26757812 33.1171875 C-61.16225756 33.17911592 -59.058553 33.2501737 -56.9543457 33.34277344 C-54.91857988 33.42762681 -52.88470949 33.47435089 -50.84765625 33.515625 C-49.63086182 33.55977539 -48.41406738 33.60392578 -47.16040039 33.64941406 C-43.72528169 33.29592092 -43.72528169 33.29592092 -41.67944336 30.078125 C-40.8481189 28.55445313 -40.8481189 28.55445313 -40 27 C-38.28125 25.234375 -38.28125 25.234375 -36.5 23.75 C-35.80519531 23.16734375 -35.11039063 22.5846875 -34.39453125 21.984375 C-33.60433594 21.32953125 -32.81414062 20.6746875 -32 20 C-30.61361328 18.80117188 -30.61361328 18.80117188 -29.19921875 17.578125 C-8.66477273 0 -8.66477273 0 0 0 Z " fill="#26211E" transform="translate(105,3)"/>
<path d="M0 0 C6.93 0.495 6.93 0.495 14 1 C14 1.66 14 2.32 14 3 C13.67 3.33 13.34 3.66 13 4 C15.97574276 4.70266613 15.97574276 4.70266613 19 5 C19 4.34 19 3.68 19 3 C20.32 3 21.64 3 23 3 C23.27214619 26.55576498 23.27214619 26.55576498 21 37 C21.9590625 36.071875 21.9590625 36.071875 22.9375 35.125 C26.84779734 32.41173246 30.3925231 31.83247794 35 31 C36.3358549 30.67692017 37.67010524 30.34679795 39 30 C36.97435584 34.72650304 34.51936937 37.35718988 29.75 39.375 C28.84121094 39.72691406 28.84121094 39.72691406 27.9140625 40.0859375 C25.70902934 41.13895334 24.02336271 42.4646708 22.125 44 C19.31290472 46.21608279 17.00673284 47.4731148 13.5625 48.4375 C9.80178896 49.51198887 7.39047952 51.07434542 4.375 53.5625 C-1.0762329 58.05621199 -5.94156074 59.34431411 -13 59 C-13.33 59.99 -13.66 60.98 -14 62 C-14.99 62 -15.98 62 -17 62 C-17.103125 63.093125 -17.20625 64.18625 -17.3125 65.3125 C-18 69 -18 69 -19.1875 70.9375 C-21.80642619 72.47273259 -24.02914805 72.1980568 -27 72 C-27.66 69.69 -28.32 67.38 -29 65 C-29.06522726 67.90351802 -29.06522726 67.90351802 -28.6875 70.375 C-29 73 -29 73 -30.8125 75.75 C-35.35189682 78.95428011 -39.51927324 79.27156754 -45 79 C-48.125 77.9375 -48.125 77.9375 -50 76 C-51.67147877 71.5079008 -50.81689707 68.15799037 -49.01171875 63.90234375 C-47.42123684 60.9117465 -45.71182914 59.01810541 -43 57 C-39.6875 56.6875 -39.6875 56.6875 -37 57 C-37.061875 55.9275 -37.12375 54.855 -37.1875 53.75 C-36.99456691 49.89133813 -36.60334924 48.71182212 -34 46 C-33.505 46.495 -33.505 46.495 -33 47 C-33 46.34 -33 45.68 -33 45 C-30.04617239 45.32820307 -28.29137946 45.77820369 -25.90625 47.59375 C-23.38803023 50.77248643 -23.19471858 53.24753281 -22.75 57.25 C-22.60046875 58.51328125 -22.4509375 59.7765625 -22.296875 61.078125 C-22.14992188 62.52445313 -22.14992188 62.52445313 -22 64 C-22 63.01 -22 62.02 -22 61 C-22 59.33333333 -22 57.66666667 -22 56 C-20.515 56.495 -20.515 56.495 -19 57 C-18.319375 56.05125 -17.63875 55.1025 -16.9375 54.125 C-14.01332019 50.5622062 -11.4504701 49.8726412 -7 49 C-6.97284617 47.25008666 -6.95353449 45.50005055 -6.9375 43.75 C-6.92589844 42.77546875 -6.91429687 41.8009375 -6.90234375 40.796875 C-6.89508675 38.11834054 -6.89508675 38.11834054 -7.5 36.0625 C-8.21583984 33.10966064 -8.09281628 30.28162806 -8.0625 27.25 C-8.05347656 26.07953125 -8.04445312 24.9090625 -8.03515625 23.703125 C-8.02355469 22.81109375 -8.01195312 21.9190625 -8 21 C-4.7 20.34 -1.4 19.68 2 19 C2.26932521 14.34947128 2.26932521 14.34947128 1 10 C0.34 10.66 -0.32 11.32 -1 12 C-4.625 11.625 -4.625 11.625 -8 11 C-8 9.02 -8 7.04 -8 5 C-7.01 5.33 -6.02 5.66 -5 6 C-4.01 5.34 -3.02 4.68 -2 4 C0.1875 4.375 0.1875 4.375 2 5 C1.34 3.35 0.68 1.7 0 0 Z " fill="#76573E" transform="translate(64,47)"/>
<path d="M0 0 C-0.19879217 8.04204675 -2.05762968 15.35875409 -4.19091797 23.05517578 C-5.73791791 28.72826669 -6.710225 34.10790835 -7 40 C-5.02 40.495 -5.02 40.495 -3 41 C-7.97946545 41.20068375 -11.68089726 40.60558384 -16.375 39 C-27.23228927 35.64779577 -38.77863493 36.6806568 -50 37 C-45.38 38.32 -40.76 39.64 -36 41 C-36.495 41.99 -36.495 41.99 -37 43 C-38.03125 42.67 -39.0625 42.34 -40.125 42 C-43.48426709 41.0284808 -46.49106202 40.82883229 -50 41 C-50.66 42.32 -51.32 43.64 -52 45 C-50.68 45.33 -49.36 45.66 -48 46 C-48.66 46.66 -49.32 47.32 -50 48 C-50.71927295 50.31765729 -51.3909893 52.65095874 -52 55 C-52.33 55 -52.66 55 -53 55 C-53 53.35 -53 51.7 -53 50 C-54.423125 50.0928125 -54.423125 50.0928125 -55.875 50.1875 C-63.74423119 50.15564076 -71.32325035 47.42993445 -77 42 C-77.625 38.3125 -77.625 38.3125 -77 35 C-73.30448425 32.53632283 -71.6726169 32.83999863 -67.28515625 33.015625 C-65.94599383 33.05065687 -64.60679917 33.08447352 -63.26757812 33.1171875 C-61.16225756 33.17911592 -59.058553 33.2501737 -56.9543457 33.34277344 C-54.91857988 33.42762681 -52.88470949 33.47435089 -50.84765625 33.515625 C-49.63086182 33.55977539 -48.41406738 33.60392578 -47.16040039 33.64941406 C-43.72528169 33.29592092 -43.72528169 33.29592092 -41.67944336 30.078125 C-40.8481189 28.55445313 -40.8481189 28.55445313 -40 27 C-38.28125 25.234375 -38.28125 25.234375 -36.5 23.75 C-35.80519531 23.16734375 -35.11039063 22.5846875 -34.39453125 21.984375 C-33.60433594 21.32953125 -32.81414062 20.6746875 -32 20 C-30.61361328 18.80117188 -30.61361328 18.80117188 -29.19921875 17.578125 C-8.66477273 0 -8.66477273 0 0 0 Z " fill="#261831" transform="translate(105,3)"/>
<path d="M0 0 C6.93 0.495 6.93 0.495 14 1 C14 1.66 14 2.32 14 3 C13.67 3.33 13.34 3.66 13 4 C15.97574276 4.70266613 15.97574276 4.70266613 19 5 C19 4.34 19 3.68 19 3 C20.32 3 21.64 3 23 3 C23.32595573 31.21327968 23.32595573 31.21327968 19 39 C16.69927616 41.30072384 15.7478543 41.39281611 12.625 41.9375 C8.95117678 42.6710909 6.9525801 43.68011563 4 46 C1.5625 46.5625 1.5625 46.5625 -1 46 C-5.66742186 41.44112283 -7.81650931 37.22209646 -8.1953125 30.5703125 C-8.17210937 29.43335937 -8.14890625 28.29640625 -8.125 27.125 C-8.10695312 25.97257812 -8.08890625 24.82015625 -8.0703125 23.6328125 C-8.04710937 22.76398438 -8.02390625 21.89515625 -8 21 C-4.7 20.34 -1.4 19.68 2 19 C2.26932521 14.34947128 2.26932521 14.34947128 1 10 C0.34 10.66 -0.32 11.32 -1 12 C-4.625 11.625 -4.625 11.625 -8 11 C-8 9.02 -8 7.04 -8 5 C-7.01 5.33 -6.02 5.66 -5 6 C-4.01 5.34 -3.02 4.68 -2 4 C0.1875 4.375 0.1875 4.375 2 5 C1.34 3.35 0.68 1.7 0 0 Z " fill="#F7E2D3" transform="translate(64,47)"/>
<path d="M0 0 C4.74069923 -0.23125362 8.46584058 0.6920694 13 2 C13.66 1.67 14.32 1.34 15 1 C17.74480834 1.57739626 20.41871486 2.21535656 23.125 2.9375 C23.87910156 3.13279297 24.63320312 3.32808594 25.41015625 3.52929688 C27.27508306 4.01323358 29.13776459 4.50580769 31 5 C31 5.33 31 5.66 31 6 C24.07 5.67 17.14 5.34 10 5 C10.99 6.65 11.98 8.3 13 10 C12.67 10.66 12.34 11.32 12 12 C11.34 11.01 10.68 10.02 10 9 C6.06924356 9.57452746 6.06924356 9.57452746 3 12 C2.67 11.34 2.34 10.68 2 10 C1.67 11.65 1.34 13.3 1 15 C1.99 14.67 2.98 14.34 4 14 C4 14.66 4 15.32 4 16 C6.86724686 15.42655063 7.8614515 15.1385485 10 13 C12.43769218 16.65653827 12.23944439 18.69000101 12 23 C10.33657163 24.66342837 8.2174291 24.36048097 5.9375 24.5625 C4.55884766 24.68818359 4.55884766 24.68818359 3.15234375 24.81640625 C2.44207031 24.87699219 1.73179688 24.93757813 1 25 C1.55466193 33.43478451 1.55466193 33.43478451 2.625 41.8125 C3.09013275 45.76612833 2.61991819 49.07385147 2 53 C4.31 53 6.62 53 9 53 C9 53.33 9 53.66 9 54 C8.19175781 54.01417969 7.38351563 54.02835938 6.55078125 54.04296875 C-0.24683486 54.22454268 -0.24683486 54.22454268 -6.0625 57.375 C-6.701875 58.24125 -7.34125 59.1075 -8 60 C-9 61 -10 62 -11 63 C-11.33 62.34 -11.66 61.68 -12 61 C-12 63.64 -12 66.28 -12 69 C-12.66 68.67 -13.32 68.34 -14 68 C-14 66.35 -14 64.7 -14 63 C-14.99 62.67 -15.98 62.34 -17 62 C-16.01 62 -15.02 62 -14 62 C-14.45082469 60.53932801 -14.91093537 59.08151968 -15.375 57.625 C-15.63023438 56.81289062 -15.88546875 56.00078125 -16.1484375 55.1640625 C-16.89854283 52.83540815 -16.89854283 52.83540815 -19 51 C-19.66 51.66 -20.32 52.32 -21 53 C-21 51.68 -21 50.36 -21 49 C-21.99 49 -22.98 49 -24 49 C-23.67 50.65 -23.34 52.3 -23 54 C-23.66 53.34 -24.32 52.68 -25 52 C-26.485 54.475 -26.485 54.475 -28 57 C-28.95178554 54.43017905 -29.00609339 53.02911288 -28.4375 50.3125 C-27 48 -27 48 -24.3125 46.8125 C-20.02175763 47.05537221 -18.41535048 48.63666115 -15.3203125 51.45703125 C-14 53 -14 53 -14 55 C-13.44570313 54.71125 -12.89140625 54.4225 -12.3203125 54.125 C-11.59585938 53.75375 -10.87140625 53.3825 -10.125 53 C-9.40570313 52.62875 -8.68640625 52.2575 -7.9453125 51.875 C-6 51 -6 51 -4 51 C-4.04600342 49.92516357 -4.09200684 48.85032715 -4.1394043 47.74291992 C-4.30590678 43.75710614 -4.45205255 39.77076139 -4.59204102 35.78393555 C-4.65549071 34.0581362 -4.72446858 32.3325309 -4.79907227 30.60717773 C-4.90532354 28.12774356 -4.99170629 25.64829226 -5.07421875 23.16796875 C-5.11157639 22.39599655 -5.14893402 21.62402435 -5.18742371 20.82865906 C-5.33923657 15.42625789 -5.33923657 15.42625789 -3.53051758 13.15356445 C-3.02544678 12.77288818 -2.52037598 12.39221191 -2 12 C-1.64386903 10.33805547 -1.30791692 8.671549 -1 7 C-0.34 6.67 0.32 6.34 1 6 C0.01 5.67 -0.98 5.34 -2 5 C-1.34 3.35 -0.68 1.7 0 0 Z " fill="#323448" transform="translate(55,43)"/>
<path d="M0 0 C28.22860378 -0.76828609 28.22860378 -0.76828609 39.92578125 3.1171875 C43.98351691 4.28243306 47.64425289 4.23691571 51.828125 3.9453125 C54 4 54 4 57 6 C59.32510612 6.27107607 61.66194569 6.44803276 64 6.5625 C70.71586716 6.90528905 70.71586716 6.90528905 74 8 C73.67 8.99 73.34 9.98 73 11 C67.28912643 11.81769326 61.76534898 12.15451544 56 12.125 C55.24460938 12.12886719 54.48921875 12.13273437 53.7109375 12.13671875 C48.72428207 12.12815061 43.9365708 11.70682718 39 11 C39.02618408 11.85231201 39.05236816 12.70462402 39.0793457 13.58276367 C39.16481492 16.76027127 39.22736789 19.9371911 39.2746582 23.11547852 C39.29972617 24.48807102 39.33379082 25.86053102 39.37719727 27.23266602 C39.43817531 29.21050696 39.46361009 31.18934184 39.48828125 33.16796875 C39.51446533 34.35672607 39.54064941 35.5454834 39.56762695 36.77026367 C38.83679342 40.92862786 37.2091997 42.358533 34 45 C33.01 45.495 33.01 45.495 32 46 C32.13277344 44.8140625 32.26554687 43.628125 32.40234375 42.40625 C33.55121373 31.94371476 34.44903805 21.51177398 35 11 C33.68 11 32.36 11 31 11 C31.33 12.65 31.66 14.3 32 16 C31.443125 15.2265625 31.443125 15.2265625 30.875 14.4375 C28.96826848 12.63680017 28.96826848 12.63680017 25.8125 13.3125 C24.884375 13.539375 23.95625 13.76625 23 14 C22.67 13.34 22.34 12.68 22 12 C22.639375 11.87625 23.27875 11.7525 23.9375 11.625 C24.618125 11.41875 25.29875 11.2125 26 11 C26.33 10.34 26.66 9.68 27 9 C18.13029989 5.87917959 9.06600177 3.47432411 0 1 C0 0.67 0 0.34 0 0 Z " fill="#6D348A" transform="translate(52,39)"/>
<path d="M0 0 C-0.4302337 7.6700283 -1.74231361 14.65896942 -4 22 C-4.66 22 -5.32 22 -6 22 C-6.66 25.3 -7.32 28.6 -8 32 C-14 30 -14 30 -15.98046875 29.234375 C-22.25947152 26.90119364 -28.33465172 26.32706447 -35 26 C-33 23 -33 23 -31.1875 22.25 C-28.34858693 20.62776396 -27.1081045 18.55770082 -25.34375 15.8515625 C-20.34324602 8.96133318 -8.86444148 0 0 0 Z " fill="#6F3291" transform="translate(105,3)"/>
<path d="M0 0 C0.66 0.33 1.32 0.66 2 1 C-2.52084209 5.49335977 -5.54972485 7.73672346 -12 8 C-11.71125 8.680625 -11.4225 9.36125 -11.125 10.0625 C-10.94964063 14.18344514 -12.79243467 15.67613269 -15.45703125 18.64453125 C-17 20 -17 20 -19 20 C-19.268125 20.61875 -19.53625 21.2375 -19.8125 21.875 C-21 24 -21 24 -24 26 C-24.79437923 28.18505129 -24.79437923 28.18505129 -25.1875 30.625 C-25.42533203 31.85089844 -25.42533203 31.85089844 -25.66796875 33.1015625 C-25.77753906 33.72804687 -25.88710938 34.35453125 -26 35 C-25.195625 35.144375 -24.39125 35.28875 -23.5625 35.4375 C-21 36 -21 36 -20 37 C-9.30643574 37.79007434 1.40087432 36.25353968 12 35 C6.47154212 40.52845788 -3.59622742 40.6223661 -11 41.1875 C-11.92039063 41.26935547 -12.84078125 41.35121094 -13.7890625 41.43554688 C-19.87074895 41.94520933 -25.89874214 42.09677971 -32 42 C-32.61328125 40.12109375 -32.61328125 40.12109375 -33 38 C-31.71182656 36.62298702 -30.37195574 35.29355827 -29 34 C-27.74563813 31.36777038 -27.74563813 31.36777038 -27 29 C-29.31 29.33 -31.62 29.66 -34 30 C-34.99 28.68 -35.98 27.36 -37 26 C-37.515625 26.495 -38.03125 26.99 -38.5625 27.5 C-41.80680017 29.49649241 -44.26217334 29.21564385 -48 29 C-48.33 28.34 -48.66 27.68 -49 27 C-48.09507813 26.96132812 -48.09507813 26.96132812 -47.171875 26.921875 C-43.40046853 26.6542268 -40.6604138 26.39310346 -37.375 24.4375 C-35.27550483 20.71566765 -36.17341552 18.13292239 -37 14 C-36.34 14 -35.68 14 -35 14 C-34.34 16.31 -33.68 18.62 -33 21 C-28.66770285 20.1395861 -28.66770285 20.1395861 -25 18 C-24.76807135 16.48530552 -24.58784762 14.96245438 -24.4375 13.4375 C-24.35371094 12.61121094 -24.26992188 11.78492187 -24.18359375 10.93359375 C-24.09271484 9.97646484 -24.09271484 9.97646484 -24 9 C-23.67 9.66 -23.34 10.32 -23 11 C-22.01 10.67 -21.02 10.34 -20 10 C-19.67 9.34 -19.34 8.68 -19 8 C-16.95336037 7.49346401 -14.88601481 7.0694016 -12.8125 6.6875 C-7.12997747 5.47606113 -3.97210084 4.19907804 0 0 Z " fill="#5C2B73" transform="translate(70,98)"/>
<path d="M0 0 C0 3 0 3 -2.0625 5.5 C-4.73547101 7.77486894 -6.87674417 8.89482771 -10.12109375 10.12109375 C-12.32251092 11.1508627 -13.98727155 12.47255372 -15.875 14 C-18.68709528 16.21608279 -20.99326716 17.4731148 -24.4375 18.4375 C-28.19821104 19.51198887 -30.60952048 21.07434542 -33.625 23.5625 C-39.0762329 28.05621199 -43.94156074 29.34431411 -51 29 C-51.33 29.99 -51.66 30.98 -52 32 C-53.65 31.67 -55.3 31.34 -57 31 C-56.49544054 26.58510474 -55.18922866 24.10530159 -52 21 C-48.25 19.6875 -48.25 19.6875 -45 19 C-45 16.36 -45 13.72 -45 11 C-44.34 10.67 -43.68 10.34 -43 10 C-42.443125 10.825 -41.88625 11.65 -41.3125 12.5 C-39.27608623 15.16780963 -39.27608623 15.16780963 -36.625 15.5625 C-33.80604654 15.12897879 -33.80604654 15.12897879 -31.125 13.0625 C-28 11 -28 11 -24.6875 10.6875 C-20.72247958 9.9482589 -19.62090749 9.09469311 -16.625 6.5625 C-12.21557398 2.87036074 -8.58356945 1.82968703 -3 1 C-2.01 0.67 -1.02 0.34 0 0 Z " fill="#825C40" transform="translate(102,77)"/>
<path d="M0 0 C6.93 0.495 6.93 0.495 14 1 C14 1.66 14 2.32 14 3 C13.67 3.33 13.34 3.66 13 4 C15.97574276 4.70266613 15.97574276 4.70266613 19 5 C19 4.34 19 3.68 19 3 C20.32 3 21.64 3 23 3 C23 8.28 23 13.56 23 19 C22.67 19 22.34 19 22 19 C21.92652344 18.04287109 21.92652344 18.04287109 21.8515625 17.06640625 C21.77679688 16.24011719 21.70203125 15.41382813 21.625 14.5625 C21.55539063 13.73878906 21.48578125 12.91507813 21.4140625 12.06640625 C21.27742188 11.38449219 21.14078125 10.70257813 21 10 C20.34 9.67 19.68 9.34 19 9 C19.33 9.66 19.66 10.32 20 11 C20.44720497 16.25465839 20.44720497 16.25465839 18.875 18.875 C16.21965017 20.4682099 14.03210482 20.20214032 11 20 C10.67 21.65 10.34 23.3 10 25 C7.36 25 4.72 25 2 25 C1.67 23.68 1.34 22.36 1 21 C-0.98 21 -2.96 21 -5 21 C-5 20.67 -5 20.34 -5 20 C-1.535 19.505 -1.535 19.505 2 19 C2.26932521 14.34947128 2.26932521 14.34947128 1 10 C0.34 10.66 -0.32 11.32 -1 12 C-4.625 11.625 -4.625 11.625 -8 11 C-8 9.02 -8 7.04 -8 5 C-7.01 5.33 -6.02 5.66 -5 6 C-4.01 5.34 -3.02 4.68 -2 4 C0.1875 4.375 0.1875 4.375 2 5 C1.34 3.35 0.68 1.7 0 0 Z " fill="#E3D3C7" transform="translate(64,47)"/>
<path d="M0 0 C0.66 0.33 1.32 0.66 2 1 C0.92492371 2.29854721 -0.16043736 3.58858361 -1.25 4.875 C-1.85328125 5.59429688 -2.4565625 6.31359375 -3.078125 7.0546875 C-4.97087634 8.97052118 -6.53657727 9.96449045 -9 11 C-7.96101563 11.08636719 -6.92203125 11.17273437 -5.8515625 11.26171875 C2.68402875 12.08292127 9.59200896 13.33439026 17 18 C17.185625 16.081875 17.185625 16.081875 17.375 14.125 C17.75 10.25 17.75 10.25 20 8 C19.34 13.94 18.68 19.88 18 26 C19.32 26.33 20.64 26.66 22 27 C16.98374995 27.19097399 13.03214189 26.6072476 8.25 25.125 C-0.6864092 22.50811477 -9.75041141 21.75669401 -19 21 C-17.35138948 16.52201737 -15.51043592 14.28149445 -12 11 C-10.6434914 9.62731038 -9.28947679 8.25215327 -7.9375 6.875 C-5.43035955 4.32317784 -2.90850779 2.0858341 0 0 Z " fill="#211F24" transform="translate(80,17)"/>
<path d="M0 0 C0.66 2.31 1.32 4.62 2 7 C1.34 7 0.68 7 0 7 C0 8.32 0 9.64 0 11 C0 11.66 0 12.32 0 13 C-2.1875 14.75 -2.1875 14.75 -5 16 C-9.13720159 15.1134568 -10.63043962 13.34888735 -13 10 C-13.51949219 10.5053125 -14.03898437 11.010625 -14.57421875 11.53125 C-15.27160156 12.1809375 -15.96898438 12.830625 -16.6875 13.5 C-17.37199219 14.1496875 -18.05648437 14.799375 -18.76171875 15.46875 C-21.40656372 17.27813784 -22.86162389 17.3077917 -26 17 C-26.65100729 13.81006428 -26.82976516 11.16819425 -26 8 C-19.0780096 0.9593469 -9.7314638 -3.11406842 0 0 Z " fill="#6E3190" transform="translate(118,62)"/>
<path d="M0 0 C1.55919615 1.98443146 2.88324627 3.70362515 3.8125 6.0625 C5.5459089 8.89069346 8.06497701 9.56243772 11 11 C13.8561951 13.57057559 13.99175924 14.91621891 14.375 18.8125 C14.27372854 22.02340102 13.77048501 23.53247477 12.4375 26.625 C10.82706112 30.40603042 10.82533025 32.11455391 12 36 C12.66 36.66 13.32 37.32 14 38 C14 38.99 14 39.98 14 41 C12.89712646 40.98428955 12.89712646 40.98428955 11.77197266 40.96826172 C8.38968424 40.92628202 5.00745093 40.9005417 1.625 40.875 C0.46871094 40.85824219 -0.68757813 40.84148437 -1.87890625 40.82421875 C-8.84367123 40.7848698 -15.24033792 41.2864189 -22 43 C-21.01 42.505 -21.01 42.505 -20 42 C-20 41.01 -20 40.02 -20 39 C-16.66805501 38.49045093 -13.33426366 37.99412986 -10 37.5 C-9.06542969 37.35691406 -8.13085938 37.21382812 -7.16796875 37.06640625 C-1.71059609 36.2649739 3.48470461 35.84390673 9 36 C8.773125 35.13375 8.54625 34.2675 8.3125 33.375 C8 30 8 30 9.4375 27.25 C11.56352087 22.8278766 11.90428413 18.828536 11 14 C7.81781039 10.91140421 4.32236622 10.50260072 0 10 C0.66 9.67 1.32 9.34 2 9 C1.67 8.2575 1.34 7.515 1 6.75 C0 4 0 4 0 0 Z " fill="#171419" transform="translate(105,90)"/>
<path d="M0 0 C0.66 0.33 1.32 0.66 2 1 C1.34 3.97 0.68 6.94 0 10 C0.804375 10.144375 1.60875 10.28875 2.4375 10.4375 C5 11 5 11 6 12 C16.69356426 12.79007434 27.40087432 11.25353968 38 10 C32.47154212 15.52845788 22.40377258 15.6223661 15 16.1875 C14.07960938 16.26935547 13.15921875 16.35121094 12.2109375 16.43554688 C6.12925105 16.94520933 0.10125786 17.09677971 -6 17 C-6.61328125 15.12109375 -6.61328125 15.12109375 -7 13 C-5.71182656 11.62298702 -4.37195574 10.29355827 -3 9 C-1.74563813 6.36777038 -1.74563813 6.36777038 -1 4 C-2.98 4.33 -4.96 4.66 -7 5 C-6.01 4.34 -5.02 3.68 -4 3 C-2.66209359 2.00612666 -1.32781878 1.0073108 0 0 Z " fill="#272429" transform="translate(44,123)"/>
<path d="M0 0 C3.26008643 3.16952847 6.22237877 6.39937989 9 10 C12.39914975 8.86695008 13.05254451 7.87481525 15 5 C14.51171875 11.0546875 14.51171875 11.0546875 14 13 C11 15 11 15 9.0625 14.6875 C8.0415625 14.3471875 8.0415625 14.3471875 7 14 C4.46468045 13.30854921 2.6705913 13 0 13 C0.309375 13.804375 0.61875 14.60875 0.9375 15.4375 C2.18565517 19.62249087 2.6337696 23.66306101 3 28 C2.01 28 1.02 28 0 28 C-0.67031719 26.0429132 -1.33614683 24.08428887 -2 22.125 C-2.37125 21.03445312 -2.7425 19.94390625 -3.125 18.8203125 C-4 16 -4 16 -4 14 C-4.99 13.67 -5.98 13.34 -7 13 C-5.35 11.02 -3.7 9.04 -2 7 C-3.65 7.33 -5.3 7.66 -7 8 C-6.21625 7.236875 -5.4325 6.47375 -4.625 5.6875 C-1.92742283 3.09108195 -1.92742283 3.09108195 0 0 Z " fill="#302A45" transform="translate(104,71)"/>
<path d="M0 0 C2.89608593 -0.05413245 5.79115195 -0.09373641 8.6875 -0.125 C9.50412109 -0.14175781 10.32074219 -0.15851562 11.16210938 -0.17578125 C15.57092929 -0.2114802 18.98731576 -0.07580814 23 2 C22.75 4.375 22.75 4.375 22 7 C18.82623521 9.15761128 16.1294018 9.23541917 12.359375 9.1953125 C11.28945312 9.18886719 10.21953125 9.18242188 9.1171875 9.17578125 C8.00601563 9.15902344 6.89484375 9.14226563 5.75 9.125 C4.62335938 9.11597656 3.49671875 9.10695313 2.3359375 9.09765625 C-0.44292365 9.07410658 -3.2213539 9.0412168 -6 9 C-6 10.65 -6 12.3 -6 14 C-7.4606285 11.35261084 -8 10.10551666 -8 7 C-8.99 7 -9.98 7 -11 7 C-10.67 9.31 -10.34 11.62 -10 14 C-10.66 14 -11.32 14 -12 14 C-11.67 16.64 -11.34 19.28 -11 22 C-10.67 19.69 -10.34 17.38 -10 15 C-9.67 15 -9.34 15 -9 15 C-9 17.31 -9 19.62 -9 22 C-8.34 22.33 -7.68 22.66 -7 23 C-7.9590625 23.4640625 -7.9590625 23.4640625 -8.9375 23.9375 C-12.09768575 27.09768575 -11.81900793 30.68333908 -12 35 C-10.35 35 -8.7 35 -7 35 C-7 35.33 -7 35.66 -7 36 C-9.31 36 -11.62 36 -14 36 C-13.67 26.1 -13.34 16.2 -13 6 C-0.5 6.0625 -0.5 6.0625 3.39257812 6.09008789 C12.24347505 6.11672119 12.24347505 6.11672119 21 5 C21.33 4.34 21.66 3.68 22 3 C20.83082031 2.93941406 19.66164062 2.87882812 18.45703125 2.81640625 C16.90884386 2.73195966 15.36066732 2.64731375 13.8125 2.5625 C13.04357422 2.52318359 12.27464844 2.48386719 11.48242188 2.44335938 C7.56748925 2.22492966 3.82879312 1.91307892 0 1 C0 0.67 0 0.34 0 0 Z " fill="#30213A" transform="translate(104,44)"/>
<path d="M0 0 C2.36574234 3.5486135 2.10865265 4.5764525 1.625 8.6875 C1.45871094 10.17830078 1.45871094 10.17830078 1.2890625 11.69921875 C1.14597656 12.83810547 1.14597656 12.83810547 1 14 C3.31 14 5.62 14 8 14 C8 14.33 8 14.66 8 15 C7.19175781 15.01417969 6.38351563 15.02835938 5.55078125 15.04296875 C-1.24683486 15.22454268 -1.24683486 15.22454268 -7.0625 18.375 C-7.701875 19.24125 -8.34125 20.1075 -9 21 C-10 22 -11 23 -12 24 C-12.33 23.34 -12.66 22.68 -13 22 C-13 24.64 -13 27.28 -13 30 C-13.66 29.67 -14.32 29.34 -15 29 C-15 27.35 -15 25.7 -15 24 C-15.99 23.67 -16.98 23.34 -18 23 C-17.01 23 -16.02 23 -15 23 C-15.45082469 21.53932801 -15.91093537 20.08151968 -16.375 18.625 C-16.63023438 17.81289062 -16.88546875 17.00078125 -17.1484375 16.1640625 C-17.89854283 13.83540815 -17.89854283 13.83540815 -20 12 C-20.66 12.66 -21.32 13.32 -22 14 C-22 12.68 -22 11.36 -22 10 C-22.99 10 -23.98 10 -25 10 C-24.67 11.65 -24.34 13.3 -24 15 C-24.66 14.34 -25.32 13.68 -26 13 C-27.485 15.475 -27.485 15.475 -29 18 C-29.95178554 15.43017905 -30.00609339 14.02911288 -29.4375 11.3125 C-28 9 -28 9 -25.3125 7.8125 C-21.02175763 8.05537221 -19.41535048 9.63666115 -16.3203125 12.45703125 C-15 14 -15 14 -15 16 C-13.95199219 15.45859375 -13.95199219 15.45859375 -12.8828125 14.90625 C-11.97273438 14.4421875 -11.06265625 13.978125 -10.125 13.5 C-9.22007813 13.0359375 -8.31515625 12.571875 -7.3828125 12.09375 C-5 11 -5 11 -3 11 C-3 11.99 -3 12.98 -3 14 C-2.01 14 -1.02 14 0 14 C0 9.38 0 4.76 0 0 Z " fill="#241C27" transform="translate(56,82)"/>
<path d="M0 0 C0.66 2.31 1.32 4.62 2 7 C1.34 7 0.68 7 0 7 C0 8.32 0 9.64 0 11 C0 11.66 0 12.32 0 13 C-2.1875 14.75 -2.1875 14.75 -5 16 C-8.81859182 15.3480453 -9.90430779 14.12155496 -12.3125 11.0625 C-14 8 -14 8 -14 5 C-12.23244474 4.15973604 -10.46082737 3.32801278 -8.6875 2.5 C-7.70136719 2.0359375 -6.71523437 1.571875 -5.69921875 1.09375 C-3 0 -3 0 0 0 Z " fill="#D5C4B8" transform="translate(118,62)"/>
<path d="M0 0 C1.65 0 3.3 0 5 0 C4.98053174 4.18185942 4.92867611 8.36171585 4.84741211 12.54272461 C4.82428497 13.96350702 4.80984874 15.38445958 4.80444336 16.80541992 C4.79511339 18.85442466 4.75404834 20.9007735 4.70703125 22.94921875 C4.6913208 24.17987061 4.67561035 25.41052246 4.65942383 26.6784668 C3.83005155 30.85603429 2.24398327 32.33294309 -1 35 C-1.99 35.495 -1.99 35.495 -3 36 C-2.86722656 34.82566406 -2.73445313 33.65132812 -2.59765625 32.44140625 C-1.40312006 21.635257 -0.52833919 10.85876078 0 0 Z " fill="#3E4877" transform="translate(87,49)"/>
<path d="M0 0 C0.33 0 0.66 0 1 0 C1 1.65 1 3.3 1 5 C1.99 4.67 2.98 4.34 4 4 C4 4.66 4 5.32 4 6 C6.86724686 5.42655063 7.8614515 5.1385485 10 3 C12.43769218 6.65653827 12.23944439 8.69000101 12 13 C10.33657163 14.66342837 8.2174291 14.36048097 5.9375 14.5625 C3.4934375 14.7790625 3.4934375 14.7790625 1 15 C1 18.3 1 21.6 1 25 C0.67 25 0.34 25 0 25 C0 16.75 0 8.5 0 0 Z " fill="#C5B6AE" transform="translate(55,53)"/>
<path d="M0 0 C-1.65 0.66 -3.3 1.32 -5 2 C-5.09796875 2.97582031 -5.1959375 3.95164062 -5.296875 4.95703125 C-5.44640625 6.22933594 -5.5959375 7.50164062 -5.75 8.8125 C-5.88921875 10.07707031 -6.0284375 11.34164062 -6.171875 12.64453125 C-7 16 -7 16 -8.890625 17.94921875 C-11 19 -11 19 -14 19 C-14 15.7 -14 12.4 -14 9 C-14.99 9.495 -14.99 9.495 -16 10 C-17.99960012 10.039992 -20.00047242 10.04346799 -22 10 C-22 9.67 -22 9.34 -22 9 C-21.14728516 8.77957031 -21.14728516 8.77957031 -20.27734375 8.5546875 C-14.97805392 7.01532785 -11.41419911 5.10994809 -7.41015625 1.3046875 C-4.71443077 -1.18941862 -3.38086619 -1.01425986 0 0 Z " fill="#2D2037" transform="translate(97,86)"/>
<path d="M0 0 C0.99 0.66 1.98 1.32 3 2 C3.39964378 5.1305429 3.52149743 7.13083761 1.875 9.875 C-0.78034983 11.4682099 -2.96789518 11.20214032 -6 11 C-6.33 12.65 -6.66 14.3 -7 16 C-7.99 15.67 -8.98 15.34 -10 15 C-9.34 15 -8.68 15 -8 15 C-8.185625 14.505 -8.37125 14.01 -8.5625 13.5 C-9.21340645 9.78053455 -8.67086543 6.72025372 -8 3 C-5.53721199 1.768606 -3.7204945 1.92840804 -1 2 C-0.67 1.34 -0.34 0.68 0 0 Z " fill="#7C8390" transform="translate(81,56)"/>
<path d="M0 0 C4.74069923 -0.23125362 8.46584058 0.6920694 13 2 C13.66 1.67 14.32 1.34 15 1 C17.74480834 1.57739626 20.41871486 2.21535656 23.125 2.9375 C23.87910156 3.13279297 24.63320312 3.32808594 25.41015625 3.52929688 C27.27508306 4.01323358 29.13776459 4.50580769 31 5 C31 5.33 31 5.66 31 6 C30.3702124 5.96447021 29.7404248 5.92894043 29.09155273 5.89233398 C26.20720847 5.73363809 23.32241253 5.58549108 20.4375 5.4375 C19.44685547 5.38142578 18.45621094 5.32535156 17.43554688 5.26757812 C12.09703438 5.0015393 7.26327694 5.10412307 2 6 C-0.4375 5.5625 -0.4375 5.5625 -2 5 C-1.34 3.35 -0.68 1.7 0 0 Z " fill="#27213A" transform="translate(55,43)"/>
<path d="M0 0 C1.55919615 1.98443146 2.88324627 3.70362515 3.8125 6.0625 C5.5459089 8.89069346 8.06497701 9.56243772 11 11 C13.8561951 13.57057559 13.99175924 14.91621891 14.375 18.8125 C14.27428198 22.01177831 13.78421647 23.49198645 12.4375 26.5625 C10.75979281 30.57440849 11.06117655 32.81796825 12 37 C8.37 37 4.74 37 1 37 C1 36.67 1 36.34 1 36 C3.64 36 6.28 36 9 36 C8.773125 35.13375 8.54625 34.2675 8.3125 33.375 C8 30 8 30 9.4375 27.25 C11.56352087 22.8278766 11.90428413 18.828536 11 14 C7.81781039 10.91140421 4.32236622 10.50260072 0 10 C0.66 9.67 1.32 9.34 2 9 C1.67 8.2575 1.34 7.515 1 6.75 C0 4 0 4 0 0 Z " fill="#34273C" transform="translate(105,90)"/>
<path d="M0 0 C8 0 8 0 10 1 C10 1.66 10 2.32 10 3 C9.01 3 8.02 3 7 3 C7 4.65 7 6.3 7 8 C5.5393715 5.35261084 5 4.10551666 5 1 C4.01 1 3.02 1 2 1 C2.33 3.31 2.66 5.62 3 8 C2.34 8 1.68 8 1 8 C1.33 10.64 1.66 13.28 2 16 C2.33 13.69 2.66 11.38 3 9 C3.33 9 3.66 9 4 9 C4 11.31 4 13.62 4 16 C4.66 16.33 5.32 16.66 6 17 C5.0409375 17.4640625 5.0409375 17.4640625 4.0625 17.9375 C0.90231425 21.09768575 1.18099207 24.68333908 1 29 C2.65 29 4.3 29 6 29 C6 29.33 6 29.66 6 30 C3.69 30 1.38 30 -1 30 C-0.67 20.1 -0.34 10.2 0 0 Z " fill="#1E1D34" transform="translate(91,50)"/>
<path d="M0 0 C1.65 1.65 3.3 3.3 5 5 C8.39914975 3.86695008 9.05254451 2.87481525 11 0 C10.51171875 6.0546875 10.51171875 6.0546875 10 8 C7 10 7 10 5.0625 9.6875 C4.0415625 9.3471875 4.0415625 9.3471875 3 9 C-0.68911459 7.85510237 -4.15275359 7.92601449 -8 8 C-7.04578192 6.85073734 -6.08647955 5.70569459 -5.125 4.5625 C-4.59132813 3.92441406 -4.05765625 3.28632812 -3.5078125 2.62890625 C-2 1 -2 1 0 0 Z " fill="#442955" transform="translate(108,76)"/>
<path d="M0 0 C0.66 0 1.32 0 2 0 C2.66 2.31 3.32 4.62 4 7 C5.98 7 7.96 7 10 7 C9.01 7.33 8.02 7.66 7 8 C7 9.65 7 11.3 7 13 C4.625 13.625 4.625 13.625 2 14 C1.34 13.34 0.68 12.68 0 12 C-0.515625 12.495 -1.03125 12.99 -1.5625 13.5 C-4.80680017 15.49649241 -7.26217334 15.21564385 -11 15 C-11.33 14.34 -11.66 13.68 -12 13 C-11.09507813 12.96132812 -11.09507813 12.96132812 -10.171875 12.921875 C-6.40046853 12.6542268 -3.6604138 12.39310346 -0.375 10.4375 C1.72449517 6.71566765 0.82658448 4.13292239 0 0 Z " fill="#281F21" transform="translate(33,112)"/>
<path d="M0 0 C0.66 2.31 1.32 4.62 2 7 C1.34 7 0.68 7 0 7 C-0.33 7.99 -0.66 8.98 -1 10 C-1.66 10 -2.32 10 -3 10 C-3.33 9.67 -3.66 9.34 -4 9 C-4 9.99 -4 10.98 -4 12 C-7 11 -7 11 -8.6875 7.9375 C-9.120625 6.968125 -9.55375 5.99875 -10 5 C-6.75728676 1.53365137 -4.90610505 0 0 0 Z " fill="#D5C5BB" transform="translate(118,62)"/>
<path d="M0 0 C0.99 0 1.98 0 3 0 C3.33 0.99 3.66 1.98 4 3 C4.66 2.67 5.32 2.34 6 2 C6.31724138 11.35862069 6.31724138 11.35862069 4 15 C1.375 15.8125 1.375 15.8125 -1 16 C-1.02689216 14.52093108 -1.04634621 13.04172517 -1.0625 11.5625 C-1.07410156 10.73878906 -1.08570312 9.91507813 -1.09765625 9.06640625 C-1 7 -1 7 0 6 C0.04080783 4.00041636 0.04254356 1.99954746 0 0 Z " fill="#5E6483" transform="translate(93,51)"/>
<path d="M0 0 C-0.40751042 7.39139585 -1.58507186 13.99822721 -4 21 C-5.56454159 16.97985339 -4.46223974 13.30074319 -3.5625 9.25 C-3.41490234 8.55261719 -3.26730469 7.85523438 -3.11523438 7.13671875 C-2.75131967 5.4227979 -2.37670932 3.71115419 -2 2 C-4.25195063 3.26747489 -6.50155747 4.53882868 -8.75 5.8125 C-9.70132813 6.34713867 -9.70132813 6.34713867 -10.671875 6.89257812 C-13.94804537 8.75248735 -17.04985101 10.63839084 -20 13 C-20.66 12.67 -21.32 12.34 -22 12 C-6.15533981 0 -6.15533981 0 0 0 Z " fill="#2F2435" transform="translate(105,3)"/>
<path d="M0 0 C2.9651327 0.32945919 4.78260543 0.84903155 7.25 2.5625 C9.73398489 6.0223361 9.7184615 8.77692253 10 13 C9.01 13 8.02 13 7 13 C6.67 11.68 6.34 10.36 6 9 C5.34 9.66 4.68 10.32 4 11 C3.32880451 9.5437455 2.66318193 8.08492133 2 6.625 C1.62875 5.81289062 1.2575 5.00078125 0.875 4.1640625 C0 2 0 2 0 0 Z " fill="#D2C5BA" transform="translate(31,92)"/>
<path d="M0 0 C1.86575259 3.16760235 2.05490957 3.73917954 1.25 7.5625 C0 11 0 11 -2 14 C0.96175123 13.38722388 2.38058783 12.74627478 5 11 C3.9574168 14.02349127 3.12578605 14.92686857 0.3125 16.5625 C-0.780625 17.036875 -1.87375 17.51125 -3 18 C-3.64324219 18.28101562 -4.28648438 18.56203125 -4.94921875 18.8515625 C-6.6275019 19.58006675 -8.31316255 20.29152827 -10 21 C-10 20.34 -10 19.68 -10 19 C-9.01 18.67 -8.02 18.34 -7 18 C-6.67 16.35 -6.34 14.7 -6 13 C-5.01 13 -4.02 13 -3 13 C-1.32889958 10.03821227 -0.67317248 7.62928808 -0.375 4.25 C-0.30023438 3.45078125 -0.22546875 2.6515625 -0.1484375 1.828125 C-0.09945312 1.22484375 -0.05046875 0.6215625 0 0 Z " fill="#4D2B5D" transform="translate(46,107)"/>
<path d="M0 0 C3.21190679 3.07225867 3.9561451 4.30928539 4.25 8.9375 C4.20737962 11.54681467 4.16155977 12.72789934 2.8125 15 C0.44004321 16.30894168 -1.3335118 16.21620175 -4 16 C-4 15.34 -4 14.68 -4 14 C-3.34 13.67 -2.68 13.34 -2 13 C-0.10785639 10.0096192 0.22803321 7.75312922 0.125 4.25 C0.10695313 3.45078125 0.08890625 2.6515625 0.0703125 1.828125 C0.04710937 1.22484375 0.02390625 0.6215625 0 0 Z " fill="#E7D4C6" transform="translate(42,103)"/>
<path d="M0 0 C0.66 0.33 1.32 0.66 2 1 C-0.97 5.455 -0.97 5.455 -4 10 C-4.66 9.34 -5.32 8.68 -6 8 C-6 10.64 -6 13.28 -6 16 C-6.66 15.67 -7.32 15.34 -8 15 C-8 13.35 -8 11.7 -8 10 C-8.99 9.67 -9.98 9.34 -11 9 C-10.01 9 -9.02 9 -8 9 C-8.33 7.35 -8.66 5.7 -9 4 C-7.54618103 3.30300448 -6.08677047 2.61766134 -4.625 1.9375 C-3.40683594 1.36322266 -3.40683594 1.36322266 -2.1640625 0.77734375 C-1.09285156 0.39255859 -1.09285156 0.39255859 0 0 Z " fill="#46332F" transform="translate(49,96)"/>
<path d="M0 0 C0.66 0 1.32 0 2 0 C2 0.66 2 1.32 2 2 C2.66 2.33 3.32 2.66 4 3 C3.67 7.62 3.34 12.24 3 17 C2.01 17 1.02 17 0 17 C0 11.39 0 5.78 0 0 Z " fill="#425084" transform="translate(53,79)"/>
<path d="M0 0 C0.99 0.66 1.98 1.32 3 2 C3.1875 4.625 3.1875 4.625 3 7 C1.68 6.67 0.36 6.34 -1 6 C-1 6.66 -1 7.32 -1 8 C-2.65 7.67 -4.3 7.34 -6 7 C-6.33 7.66 -6.66 8.32 -7 9 C-7 6.69 -7 4.38 -7 2 C-5.02 2 -3.04 2 -1 2 C-0.67 1.34 -0.34 0.68 0 0 Z " fill="#101011" transform="translate(81,56)"/>
<path d="M0 0 C-10.47493547 4.87157677 -19.76682064 4.08101726 -31 3 C-31 2.67 -31 2.34 -31 2 C-30.29391602 1.94465088 -29.58783203 1.88930176 -28.86035156 1.83227539 C-25.65661463 1.57916858 -22.45331489 1.32089096 -19.25 1.0625 C-18.13882813 0.97548828 -17.02765625 0.88847656 -15.8828125 0.79882812 C-14.81289062 0.71181641 -13.74296875 0.62480469 -12.640625 0.53515625 C-11.65610352 0.456604 -10.67158203 0.37805176 -9.65722656 0.29711914 C-7.05770899 0.07667663 -7.05770899 0.07667663 -4.83496094 -0.59594727 C-3 -1 -3 -1 0 0 Z " fill="#472A59" transform="translate(82,134)"/>
<path d="M0 0 C1.5 1.125 1.5 1.125 3 3 C3.1875 6.1875 3.1875 6.1875 3 9 C2.67 8.01 2.34 7.02 2 6 C1.01 6.66 0.02 7.32 -1 8 C-2.9896995 8.39013716 -4.99019869 8.73202649 -7 9 C-7 7.02 -7 5.04 -7 3 C-6.21625 3.061875 -5.4325 3.12375 -4.625 3.1875 C-3.75875 3.125625 -2.8925 3.06375 -2 3 C-1.34 2.01 -0.68 1.02 0 0 Z " fill="#0A0B0C" transform="translate(64,56)"/>
<path d="M0 0 C3.74525799 3.74525799 3.68909949 7.98270909 4 13 C2.68 13 1.36 13 0 13 C-0.39222105 11.58800422 -0.76311059 10.17007236 -1.125 8.75 C-1.33382813 7.96109375 -1.54265625 7.1721875 -1.7578125 6.359375 C-2.04314411 3.5796929 -1.44977894 2.34112451 0 0 Z " fill="#928A83" transform="translate(29,93)"/>
<path d="M0 0 C0.28328381 3.70787035 0.46346554 7.30318076 0 11 C-2.5 13.1875 -2.5 13.1875 -5 14 C-4.91276622 12.22825181 -4.80458345 10.45752623 -4.6875 8.6875 C-4.62949219 7.70136719 -4.57148437 6.71523437 -4.51171875 5.69921875 C-4.04332931 3.22855383 -3.08535546 0 0 0 Z " fill="#414F86" transform="translate(89,90)"/>
<path d="M0 0 C0.66 0.66 1.32 1.32 2 2 C-1 4 -1 4 -4.6875 3.375 C-9.09637331 2.64154603 -11.59339775 3.92110142 -15.3359375 6.1875 C-15.88507813 6.455625 -16.43421875 6.72375 -17 7 C-17.66 6.67 -18.32 6.34 -19 6 C-18.34 4.68 -17.68 3.36 -17 2 C-17 2.66 -17 3.32 -17 4 C-15.2984375 3.01 -15.2984375 3.01 -13.5625 2 C-9.11264043 -0.23682781 -4.92793446 -0.87925802 0 0 Z " fill="#291D2E" transform="translate(116,59)"/>
<path d="M0 0 C-2.00530737 3.00796105 -3.58687035 4.72007638 -7 6 C-7.99 6 -8.98 6 -10 6 C-9.79375 6.61875 -9.5875 7.2375 -9.375 7.875 C-9.25125 8.57625 -9.1275 9.2775 -9 10 C-9.66 10.66 -10.32 11.32 -11 12 C-11.125 4.375 -11.125 4.375 -10 1 C-6.52674819 -0.1577506 -3.63932552 -0.06866652 0 0 Z " fill="#5F3577" transform="translate(114,61)"/>
<path d="M0 0 C0.33 0.66 0.66 1.32 1 2 C-1.28819146 3.50554634 -3.58021169 5.00457043 -5.875 6.5 C-6.85146484 7.14388672 -6.85146484 7.14388672 -7.84765625 7.80078125 C-12.7734375 11 -12.7734375 11 -15 11 C-15.33 9.68 -15.66 8.36 -16 7 C-15.34773438 6.74605469 -14.69546875 6.49210937 -14.0234375 6.23046875 C-9.22956098 4.34261472 -4.55992898 2.39996262 0 0 Z " fill="#70563E" transform="translate(134,56)"/>
<path d="M0 0 C1.70884005 1.62339805 3.37446717 3.29319053 5 5 C5 5.66 5 6.32 5 7 C5.66 7.33 6.32 7.66 7 8 C6 9 6 9 2.4375 9.0625 C1.303125 9.041875 0.16875 9.02125 -1 9 C-1.09765625 2.84765625 -1.09765625 2.84765625 -1 1 C-0.67 0.67 -0.34 0.34 0 0 Z " fill="#613279" transform="translate(58,87)"/>
<path d="M0 0 C0 0.99 0 1.98 0 3 C-3.03525486 5.02350324 -4.19426202 5.32124018 -7.6875 5.625 C-8.49574219 5.69976562 -9.30398437 5.77453125 -10.13671875 5.8515625 C-11.05904297 5.92503906 -11.05904297 5.92503906 -12 6 C-12.33 6.99 -12.66 7.98 -13 9 C-16.0625 10.1875 -16.0625 10.1875 -19 11 C-19.33 10.01 -19.66 9.02 -20 8 C-19.113125 7.731875 -18.22625 7.46375 -17.3125 7.1875 C-14.03950648 6.15366473 -14.03950648 6.15366473 -11.5625 4.4375 C-8.40394015 2.66562496 -5.56274868 2.47055171 -2 2 C-1.34 1.34 -0.68 0.68 0 0 Z " fill="#584740" transform="translate(83,85)"/>
<path d="M0 0 C0.99 0.33 1.98 0.66 3 1 C2.67 9.91 2.34 18.82 2 28 C1.67 28 1.34 28 1 28 C0.67 18.76 0.34 9.52 0 0 Z " fill="#141418" transform="translate(50,60)"/>
<path d="M0 0 C0.33 0.66 0.66 1.32 1 2 C1.66 2 2.32 2 3 2 C2.67 4.97 2.34 7.94 2 11 C1.67 11 1.34 11 1 11 C1 9.35 1 7.7 1 6 C-0.546875 6.061875 -0.546875 6.061875 -2.125 6.125 C-5.86829627 6.00424851 -8.53734547 5.35127982 -12 4 C-8.0186217 2.6728739 -4.14954773 2.93084087 0 3 C0 2.01 0 1.02 0 0 Z " fill="#18151D" transform="translate(51,47)"/>
<path d="M0 0 C1.8125 2.0625 1.8125 2.0625 3 4 C2.67 4.66 2.34 5.32 2 6 C1.34 5.01 0.68 4.02 0 3 C-3.93075644 3.57452746 -3.93075644 3.57452746 -7 6 C-9 3 -9 3 -9 0 C-5.67621719 -1.1079276 -3.33613123 -1.11204374 0 0 Z " fill="#8A827C" transform="translate(65,49)"/>
<path d="M0 0 C1.485 0.99 1.485 0.99 3 2 C6.14221967 1.68493373 6.14221967 1.68493373 9 1 C9 1.66 9 2.32 9 3 C8.34 3 7.68 3 7 3 C7 4.32 7 5.64 7 7 C4.69 6.67 2.38 6.34 0 6 C0 4.02 0 2.04 0 0 Z " fill="#F2ECE8" transform="translate(56,52)"/>
<path d="M0 0 C1.55919615 1.98443146 2.88324627 3.70362515 3.8125 6.0625 C5.55953895 8.91293198 8.01855252 9.63350324 11 11 C11.66 11.66 12.32 12.32 13 13 C12.67 13.99 12.34 14.98 12 16 C11.2575 15.071875 11.2575 15.071875 10.5 14.125 C7.11778563 11.25011778 4.32742915 10.86548583 0 10 C0.66 9.67 1.32 9.34 2 9 C1.67 8.2575 1.34 7.515 1 6.75 C0 4 0 4 0 0 Z " fill="#27202F" transform="translate(105,90)"/>
<path d="M0 0 C1.98 0 3.96 0 6 0 C6 3 6 3 5 6 C2.69 5.67 0.38 5.34 -2 5 C-1.34 3.35 -0.68 1.7 0 0 Z " fill="#435181" transform="translate(55,43)"/>
<path d="M0 0 C0.66 1.32 1.32 2.64 2 4 C-0.51958843 6.63411518 -1.84940313 7.97260484 -5.625 8.0625 C-6.40875 8.041875 -7.1925 8.02125 -8 8 C-7.04578192 6.85073734 -6.08647955 5.70569459 -5.125 4.5625 C-4.59132813 3.92441406 -4.05765625 3.28632812 -3.5078125 2.62890625 C-2 1 -2 1 0 0 Z " fill="#65337E" transform="translate(108,76)"/>
<path d="M0 0 C0.99 0.33 1.98 0.66 3 1 C3 7.6 3 14.2 3 21 C2.67 21 2.34 21 2 21 C1.67 17.04 1.34 13.08 1 9 C0.67 9 0.34 9 0 9 C-1.125 2.25 -1.125 2.25 0 0 Z " fill="#4C526C" transform="translate(51,56)"/>
<path d="M0 0 C0 0.33 0 0.66 0 1 C-1.65 1 -3.3 1 -5 1 C-4.67 2.65 -4.34 4.3 -4 6 C-4.66 5.34 -5.32 4.68 -6 4 C-7.485 6.475 -7.485 6.475 -9 9 C-9.98726527 6.33438378 -10.0275526 5.09873015 -9.25 2.3125 C-6.98031935 -1.8864092 -4.08453607 -0.9935358 0 0 Z " fill="#3D3937" transform="translate(36,91)"/>
<path d="M0 0 C1.37562854 1.28965176 2.70766393 2.62689293 4 4 C4 4.66 4 5.32 4 6 C0.37 6.66 -3.26 7.32 -7 8 C-6.21625 7.236875 -5.4325 6.47375 -4.625 5.6875 C-1.92742283 3.09108195 -1.92742283 3.09108195 0 0 Z " fill="#533C36" transform="translate(104,71)"/>
<path d="M0 0 C-0.25 2.375 -0.25 2.375 -1 5 C-3.0625 6.3125 -3.0625 6.3125 -5 7 C-6.32 5.35 -7.64 3.7 -9 2 C-7.824375 1.7834375 -7.824375 1.7834375 -6.625 1.5625 C-4.19936192 1.04272041 -2.45184765 0 0 0 Z " fill="#221527" transform="translate(118,75)"/>
<path d="M0 0 C0.99 0.33 1.98 0.66 3 1 C4.32854177 6.9180497 3.66464729 9.77729131 1 15 C-0.34209166 12.31581667 0.36766324 10.88064523 1 8 C1 7.01 1 6.02 1 5 C0.01 4.67 -0.98 4.34 -2 4 C-1.34 4 -0.68 4 0 4 C0 2.68 0 1.36 0 0 Z " fill="#2E222E" transform="translate(117,68)"/>
<path d="M0 0 C0.5625 1.9375 0.5625 1.9375 1 4 C0 5 0 5 -1.84765625 5.09765625 C-3.8984375 5.06510417 -5.94921875 5.03255208 -8 5 C-8 4.01 -8 3.02 -8 2 C-2.25 0 -2.25 0 0 0 Z " fill="#818A9B" transform="translate(66,62)"/>
<path d="M0 0 C0.66 0.33 1.32 0.66 2 1 C-1.08290155 5.22797927 -1.08290155 5.22797927 -3 7 C-5.8125 7.375 -5.8125 7.375 -8 7 C-8 7.66 -8 8.32 -8 9 C-9.32 8.67 -10.64 8.34 -12 8 C-11.21753906 7.50628906 -10.43507813 7.01257813 -9.62890625 6.50390625 C-8.61699219 5.86324219 -7.60507813 5.22257812 -6.5625 4.5625 C-5.55316406 3.92441406 -4.54382813 3.28632812 -3.50390625 2.62890625 C-1.15446165 1.22350458 -1.15446165 1.22350458 0 0 Z " fill="#46205B" transform="translate(84,119)"/>
<path d="M0 0 C1.5 1.3125 1.5 1.3125 3 3 C3 3.99 3 4.98 3 6 C3.99 6 4.98 6 6 6 C6 6.66 6 7.32 6 8 C1.61538462 11 1.61538462 11 -1 11 C-1 9.35 -1 7.7 -1 6 C-0.01 6.33 0.98 6.66 2 7 C1.34 4.69 0.68 2.38 0 0 Z " fill="#897E78" transform="translate(112,67)"/>
<path d="M0 0 C0.99 0.495 0.99 0.495 2 1 C2.66 1 3.32 1 4 1 C5.33783393 1.31478446 6.67203709 1.64587656 8 2 C7.0409375 2.6496875 7.0409375 2.6496875 6.0625 3.3125 C3.73253997 4.91239177 3.73253997 4.91239177 3 8 C4.32 8.33 5.64 8.66 7 9 C5.35 9 3.7 9 2 9 C0 3.375 0 3.375 0 0 Z " fill="#C1BEBB" transform="translate(73,50)"/>
<path d="M0 0 C0.33 0.66 0.66 1.32 1 2 C1.66 2.33 2.32 2.66 3 3 C-1.62 3.33 -6.24 3.66 -11 4 C-8 1 -8 1 -4.375 0.875 C-2.704375 0.936875 -2.704375 0.936875 -1 1 C-0.67 0.67 -0.34 0.34 0 0 Z " fill="#373B58" transform="translate(69,44)"/>
<path d="M0 0 C0.33 0 0.66 0 1 0 C1 3.63 1 7.26 1 11 C1.99 11.33 2.98 11.66 4 12 C2.02 13.32 0.04 14.64 -2 16 C-1.34 10.72 -0.68 5.44 0 0 Z " fill="#393439" transform="translate(86,69)"/>
<path d="M0 0 C2.47598865 1.19805902 2.96367818 2.42179364 3.9375 4.9375 C2.9475 6.4225 2.9475 6.4225 1.9375 7.9375 C1.6075 7.2775 1.2775 6.6175 0.9375 5.9375 C-0.0525 6.4325 -0.0525 6.4325 -1.0625 6.9375 C-1.0625 5.9475 -1.0625 4.9575 -1.0625 3.9375 C-0.4025 3.9375 0.2575 3.9375 0.9375 3.9375 C0.9375 3.2775 0.9375 2.6175 0.9375 1.9375 C-1.0425 2.2675 -3.0225 2.5975 -5.0625 2.9375 C-2.64829882 -0.08025148 -2.64829882 -0.08025148 0 0 Z " fill="#D6D6D4" transform="translate(64.0625,51.0625)"/>
<path d="M0 0 C2.50298434 2.93828597 3.46930939 5.17902761 4 9 C1 8 1 8 -0.6875 4.9375 C-1.120625 3.968125 -1.55375 2.99875 -2 2 C-1.34 1.34 -0.68 0.68 0 0 Z " fill="#ECDBCE" transform="translate(110,65)"/>
<path d="M0 0 C0.66 0.33 1.32 0.66 2 1 C1.34 3.64 0.68 6.28 0 9 C-0.33 9 -0.66 9 -1 9 C-1 7.35 -1 5.7 -1 4 C-2.98 4.33 -4.96 4.66 -7 5 C-6.01 4.34 -5.02 3.68 -4 3 C-2.66209359 2.00612666 -1.32781878 1.0073108 0 0 Z " fill="#23162A" transform="translate(44,123)"/>
<path d="M0 0 C2.64 0 5.28 0 8 0 C8 0.66 8 1.32 8 2 C4.7 2.66 1.4 3.32 -2 4 C-1.34 3.67 -0.68 3.34 0 3 C0 2.01 0 1.02 0 0 Z " fill="#39204A" transform="translate(85,129)"/>
<path d="M0 0 C3.93809611 3.76687454 3.93809611 3.76687454 4.09765625 6.9453125 C4.06510417 8.96354167 4.03255208 10.98177083 4 13 C3.67 13 3.34 13 3 13 C3 11.02 3 9.04 3 7 C2.34 7 1.68 7 1 7 C0.67 4.69 0.34 2.38 0 0 Z " fill="#DDCABD" transform="translate(42,103)"/>
<path d="M0 0 C0.66 0.33 1.32 0.66 2 1 C-1.78756477 4.61139896 -1.78756477 4.61139896 -4 6 C-6.875 5.8125 -6.875 5.8125 -9 5 C-6.32239719 2.32239719 -3.52050129 1.32018799 0 0 Z " fill="#5D3173" transform="translate(49,96)"/>
<path d="M0 0 C5.445 1.485 5.445 1.485 11 3 C10.67 3.66 10.34 4.32 10 5 C4.06 3.515 4.06 3.515 -2 2 C-1.34 1.34 -0.68 0.68 0 0 Z " fill="#261F3D" transform="translate(58,41)"/>
<path d="M0 0 C1.258125 -0.04125 2.51625 -0.0825 3.8125 -0.125 C4.52019531 -0.14820312 5.22789063 -0.17140625 5.95703125 -0.1953125 C8 0 8 0 11 2 C6.6835078 2.76173392 3.25566547 3.16063604 -1 2 C-0.67 1.34 -0.34 0.68 0 0 Z " fill="#1D1821" transform="translate(94,128)"/>
<path d="M0 0 C3.53790403 3.69172595 3.59115883 7.09390595 4 12 C2 11 2 11 0.875 8.25 C0.08026605 5.29813104 -0.17810598 3.02780163 0 0 Z " fill="#DDCDC3" transform="translate(29,93)"/>
<path d="M0 0 C0.33 0 0.66 0 1 0 C3.21538462 7.26153846 3.21538462 7.26153846 2.125 11 C1.75375 11.66 1.3825 12.32 1 13 C0.01 12.67 -0.98 12.34 -2 12 C-1.34 12 -0.68 12 0 12 C-0.185625 11.505 -0.37125 11.01 -0.5625 10.5 C-1.20139296 6.84918311 -0.54905291 3.66035276 0 0 Z " fill="#B5A79C" transform="translate(73,59)"/>
<path d="M0 0 C0.66 0.33 1.32 0.66 2 1 C0.35 2.98 -1.3 4.96 -3 7 C-4.32 6.67 -5.64 6.34 -7 6 C-4.69 4.02 -2.38 2.04 0 0 Z " fill="#47215E" transform="translate(93,112)"/>
<path d="M0 0 C-5.75 4 -5.75 4 -8 4 C-8.33 2.68 -8.66 1.36 -9 0 C-2.25 -1.125 -2.25 -1.125 0 0 Z " fill="#674E38" transform="translate(127,63)"/>
<path d="M0 0 C0.66 0.99 1.32 1.98 2 3 C1.34 3 0.68 3 0 3 C0 3.99 0 4.98 0 6 C-1.32 6 -2.64 6 -4 6 C-3.6875 4.125 -3.6875 4.125 -3 2 C-2.01 1.34 -1.02 0.68 0 0 Z " fill="#F7F7F7" transform="translate(80,52)"/>
<path d="M0 0 C4.29 0.33 8.58 0.66 13 1 C13 1.33 13 1.66 13 2 C10.03 2 7.06 2 4 2 C3.67 3.32 3.34 4.64 3 6 C0 2.25 0 2.25 0 0 Z " fill="#BEB3AB" transform="translate(64,47)"/>
<path d="M0 0 C-0.99 0 -1.98 0 -3 0 C-3 1.65 -3 3.3 -3 5 C-3.99 5 -4.98 5 -6 5 C-6 3.35 -6 1.7 -6 0 C-3.50907189 -1.24546405 -2.58919267 -0.7767578 0 0 Z " fill="#1F1127" transform="translate(43,120)"/>
<path d="M0 0 C2 3 2 3 2 6 C3.32 6.33 4.64 6.66 6 7 C3.03 6.67 0.06 6.34 -3 6 C-3 5.34 -3 4.68 -3 4 C-2.01 4 -1.02 4 0 4 C0 2.68 0 1.36 0 0 Z " fill="#251F1B" transform="translate(27,100)"/>
<path d="M0 0 C0.66 0 1.32 0 2 0 C2 1.32 2 2.64 2 4 C1.01 4 0.02 4 -1 4 C-0.79375 4.61875 -0.5875 5.2375 -0.375 5.875 C-0.25125 6.57625 -0.1275 7.2775 0 8 C-0.66 8.66 -1.32 9.32 -2 10 C-2.1953125 3.9453125 -2.1953125 3.9453125 -2 2 C-1.34 1.34 -0.68 0.68 0 0 Z " fill="#552C6D" transform="translate(105,63)"/>
<path d="M0 0 C0.66 0.33 1.32 0.66 2 1 C-0.31 3.64 -2.62 6.28 -5 9 C-5.66 8.67 -6.32 8.34 -7 8 C-5.08864614 4.46399535 -3.37357234 2.21027154 0 0 Z " fill="#392444" transform="translate(80,17)"/>
<path d="M0 0 C0.66 0.33 1.32 0.66 2 1 C-0.83430453 4.2542015 -2.68607774 5.5206753 -7 6 C-7 5.01 -7 4.02 -7 3 C-6.401875 2.87625 -5.80375 2.7525 -5.1875 2.625 C-2.73768652 2.04524015 -2.73768652 2.04524015 0 0 Z " fill="#5A3173" transform="translate(89,12)"/>
<path d="M0 0 C0 3 0 3 -1.375 4.5 C-1.91125 4.995 -2.4475 5.49 -3 6 C-3.66 6.99 -4.32 7.98 -5 9 C-5.3125 6.75 -5.3125 6.75 -5 4 C-2.5 1.6875 -2.5 1.6875 0 0 Z " fill="#643282" transform="translate(97,66)"/>
<path d="M0 0 C0.33 0 0.66 0 1 0 C1 2.31 1 4.62 1 7 C1.66 7.33 2.32 7.66 3 8 C0.525 9.485 0.525 9.485 -2 11 C-1.34 7.37 -0.68 3.74 0 0 Z " fill="#2F2D3F" transform="translate(94,59)"/>
</svg>
