<?xml version="1.0" encoding="UTF-8"?>
<svg version="1.1" xmlns="http://www.w3.org/2000/svg" width="32" height="32">
<path d="M0 0 C10.56 0 21.12 0 32 0 C32 10.56 32 21.12 32 32 C21.44 32 10.88 32 0 32 C0 21.44 0 10.88 0 0 Z " fill="#FBFBFB" transform="translate(0,0)"/>
<path d="M0 0 C-0.33 2.97 -0.66 5.94 -1 9 C0.98 9 2.96 9 5 9 C5 9.66 5 10.32 5 11 C3.02 11 1.04 11 -1 11 C-0.67 11.33 -0.34 11.66 0 12 C1.91424457 11.8981629 1.91424457 11.8981629 4.0625 11.5625 C6.0115625 11.2840625 6.0115625 11.2840625 8 11 C7.54625 11.4125 7.0925 11.825 6.625 12.25 C4.94049626 14.06408095 4.00734029 15.75285627 3 18 C2.34 18 1.68 18 1 18 C1 18.99 1 19.98 1 21 C1.66 21 2.32 21 3 21 C3 23.31 3 25.62 3 28 C-3.14778871 29.6277833 -8.64012196 30.20190089 -15 30 C-15 29.34 -15 28.68 -15 28 C-16.65 27.67 -18.3 27.34 -20 27 C-19.67 25.35 -19.34 23.7 -19 22 C-18.34 22 -17.68 22 -17 22 C-17 21.01 -17 20.02 -17 19 C-15.35 19.33 -13.7 19.66 -12 20 C-12 17.03 -12 14.06 -12 11 C-13.32 10.67 -14.64 10.34 -16 10 C-16.33 9.01 -16.66 8.02 -17 7 C-15.2365625 6.938125 -15.2365625 6.938125 -13.4375 6.875 C-8.90838666 6.35210059 -6.62324925 4.41832775 -3.4453125 1.27734375 C-2 0 -2 0 0 0 Z " fill="#62387B" transform="translate(23,1)"/>
<path d="M0 0 C2.00720923 0.28674418 4.0085944 0.61866701 6 1 C6 1.66 6 2.32 6 3 C4.02 3.99 2.04 4.98 0 6 C0 6.66 0 7.32 0 8 C-0.99 8 -1.98 8 -3 8 C-2.67 9.98 -2.34 11.96 -2 14 C0.97 13.34 3.94 12.68 7 12 C4 15 4 15 1.5 16.375 C-1.35957481 18.23372362 -2.45863559 19.99839562 -4 23 C-6.64 22.67 -9.28 22.34 -12 22 C-11.67 20.35 -11.34 18.7 -11 17 C-10.34 17 -9.68 17 -9 17 C-9 16.01 -9 15.02 -9 14 C-7.35 14.33 -5.7 14.66 -4 15 C-4 12.03 -4 9.06 -4 6 C-5.32 5.67 -6.64 5.34 -8 5 C-8.33 4.01 -8.66 3.02 -9 2 C-6.94921875 1.77213542 -4.8984375 1.54427083 -2.84765625 1.31640625 C-0.98859771 1.18113386 -0.98859771 1.18113386 0 0 Z " fill="#724C7B" transform="translate(15,6)"/>
<path d="M0 0 C-0.33 2.97 -0.66 5.94 -1 9 C0.98 9 2.96 9 5 9 C5 9.66 5 10.32 5 11 C3.02 11 1.04 11 -1 11 C-0.67 11.33 -0.34 11.66 0 12 C1.91424457 11.8981629 1.91424457 11.8981629 4.0625 11.5625 C6.0115625 11.2840625 6.0115625 11.2840625 8 11 C6.625 12.5 6.625 12.5 5 14 C4.34 14 3.68 14 3 14 C3 14.66 3 15.32 3 16 C1.576875 15.9071875 1.576875 15.9071875 0.125 15.8125 C-1.421875 15.9053125 -1.421875 15.9053125 -3 16 C-3.66 16.99 -4.32 17.98 -5 19 C-7.625 19.1875 -7.625 19.1875 -10 19 C-10.6875 16.25 -10.6875 16.25 -11 13 C-9.5625 10.6875 -9.5625 10.6875 -8 9 C-8 8.67 -8 8.34 -8 8 C-6.02 8 -4.04 8 -2 8 C-2 7.34 -2 6.68 -2 6 C-3.65 5.67 -5.3 5.34 -7 5 C-2.25 0 -2.25 0 0 0 Z " fill="#6D547B" transform="translate(23,1)"/>
<path d="M0 0 C2.625 0.375 2.625 0.375 5 1 C6 4 6 4 5.1875 6.125 C4 8 4 8 2 9 C0.45976004 9.06950541 -1.08334988 9.08452357 -2.625 9.0625 C-3.85089844 9.04896484 -3.85089844 9.04896484 -5.1015625 9.03515625 C-6.04128906 9.01775391 -6.04128906 9.01775391 -7 9 C-6.67 8.34 -6.34 7.68 -6 7 C-5.34 7 -4.68 7 -4 7 C-3.71125 6.21625 -3.4225 5.4325 -3.125 4.625 C-2 2 -2 2 0 0 Z " fill="#6A3686" transform="translate(15,22)"/>
<path d="M0 0 C0.09765625 6.15234375 0.09765625 6.15234375 0 8 C-1 9 -1 9 -3.5625 9.0625 C-4.366875 9.041875 -5.17125 9.02125 -6 9 C-6.6875 6.1875 -6.6875 6.1875 -7 3 C-4.91535587 -0.29154337 -4.06752403 0 0 0 Z " fill="#F2DDCF" transform="translate(19,11)"/>
<path d="M0 0 C2.00720923 0.28674418 4.0085944 0.61866701 6 1 C6 1.66 6 2.32 6 3 C2.57905758 5.28062828 1.31812778 5.21925007 -2.6875 5.125 C-4.17830078 5.09792969 -4.17830078 5.09792969 -5.69921875 5.0703125 C-6.45847656 5.04710937 -7.21773438 5.02390625 -8 5 C-8.33 4.01 -8.66 3.02 -9 2 C-6.94921875 1.77213542 -4.8984375 1.54427083 -2.84765625 1.31640625 C-0.98859771 1.18113386 -0.98859771 1.18113386 0 0 Z " fill="#3C2F48" transform="translate(15,6)"/>
<path d="M0 0 C2.31 0 4.62 0 7 0 C7 0.99 7 1.98 7 3 C6.01 3 5.02 3 4 3 C4.33 5.64 4.66 8.28 5 11 C2.69 11.33 0.38 11.66 -2 12 C-2 11.01 -2 10.02 -2 9 C0.475 9.495 0.475 9.495 3 10 C3 7.03 3 4.06 3 1 C2.01 0.67 1.02 0.34 0 0 Z " fill="#756F77" transform="translate(8,11)"/>
<path d="M0 0 C1.65 0 3.3 0 5 0 C4.67 1.65 4.34 3.3 4 5 C2.35 5 0.7 5 -1 5 C-0.67 3.35 -0.34 1.7 0 0 Z " fill="#775C48" transform="translate(4,23)"/>
<path d="M0 0 C-0.33 1.65 -0.66 3.3 -1 5 C-1.99 5.33 -2.98 5.66 -4 6 C-4.99 5.34 -5.98 4.68 -7 4 C-2.25 0 -2.25 0 0 0 Z " fill="#6F3E8A" transform="translate(23,1)"/>
<path d="M0 0 C0 1.32 0 2.64 0 4 C-3.75 5.125 -3.75 5.125 -6 4 C-6.33 4.99 -6.66 5.98 -7 7 C-6.625 4.0625 -6.625 4.0625 -6 1 C-4 0 -4 0 0 0 Z " fill="#C0B7B3" transform="translate(19,11)"/>
<path d="M0 0 C-1.61992165 0.86375896 -3.24611861 1.71575854 -4.875 2.5625 C-6.23238281 3.27599609 -6.23238281 3.27599609 -7.6171875 4.00390625 C-8.40351563 4.33261719 -9.18984375 4.66132813 -10 5 C-10.66 4.67 -11.32 4.34 -12 4 C-11.01 3.67 -10.02 3.34 -9 3 C-9 2.34 -9 1.68 -9 1 C-3.375 -1.125 -3.375 -1.125 0 0 Z " fill="#7C5949" transform="translate(22,19)"/>
</svg>
