<?xml version="1.0" encoding="UTF-8"?>
<svg version="1.1" xmlns="http://www.w3.org/2000/svg" width="96" height="96">
<path d="M0 0 C31.68 0 63.36 0 96 0 C96 31.68 96 63.36 96 96 C64.32 96 32.64 96 0 96 C0 64.32 0 32.64 0 0 Z " fill="#FDFDFD" transform="translate(0,0)"/>
<path d="M0 0 C-0.66513998 5.68920699 -1.5358456 11.30318138 -2.5625 16.9375 C-3.54801366 21.44888031 -3.54801366 21.44888031 -4 26 C-3.04738281 26.04898437 -2.09476563 26.09796875 -1.11328125 26.1484375 C0.14097656 26.22320313 1.39523438 26.29796875 2.6875 26.375 C3.92886719 26.44460937 5.17023438 26.51421875 6.44921875 26.5859375 C9.69317772 26.96422094 12.06567185 27.61979976 15 29 C14.25 30.9375 14.25 30.9375 13 33 C10.15444445 33.98357246 7.49427052 34.13525435 4.5 34.125 C3.37078125 34.12886719 3.37078125 34.12886719 2.21875 34.1328125 C0.026465 34.00158417 -1.89319137 33.60331338 -4 33 C-3.505 35.97 -3.505 35.97 -3 39 C-2.360625 38.649375 -1.72125 38.29875 -1.0625 37.9375 C2.06079588 36.98138902 3.15333857 37.07725428 6.25 37.625 C11.62882519 38.42956377 15.3508347 36.56088774 20 34 C20 35.32 20 36.64 20 38 C18.35546875 39.09765625 18.35546875 39.09765625 16.1875 40.0625 C13.22217401 41.72098321 12.17207309 42.60316695 10.80078125 45.765625 C10.08144308 48.502619 9.46910464 51.20980469 9 54 C5.71303767 54.79953138 4.28976808 55.09658936 1 54 C1.42650478 57.09375107 1.93141233 60.05868545 3 63 C5.44896633 64.53136956 5.44896633 64.53136956 8 65 C10.05905007 69.11810013 9.09069656 74.38527884 8.4375 78.8125 C7.75876119 82.01343771 7.75876119 82.01343771 9 85 C7.77925781 85.02578125 6.55851562 85.0515625 5.30078125 85.078125 C-3.69423296 85.35658573 -11.63878335 85.93749874 -20.140625 89.0625 C-26.1698786 91.03930446 -32.16619725 91.13709006 -38.4375 91.0625 C-39.53481445 91.05573242 -39.53481445 91.05573242 -40.65429688 91.04882812 C-42.43623419 91.03718148 -44.21812863 91.01925191 -46 91 C-44.79618552 88.50638429 -43.54571278 86.31856917 -42 84 C-44.31 83.34 -46.62 82.68 -49 82 C-49.495 82.495 -49.495 82.495 -50 83 C-57.39449541 82.40366972 -57.39449541 82.40366972 -61 80 C-61.61930234 76.10724244 -61.11046852 74.2168456 -59.3125 70.6875 C-56.74907664 67.70838637 -55.77373419 67.40797126 -52 67 C-51.505 66.01 -51.505 66.01 -51 65 C-50.34 65.33 -49.68 65.66 -49 66 C-49 66.66 -49 67.32 -49 68 C-47.02 68 -45.04 68 -43 68 C-43.99 65.03 -43.99 65.03 -45 62 C-45.99 62.495 -45.99 62.495 -47 63 C-47.66 62.01 -48.32 61.02 -49 60 C-49.66 60 -50.32 60 -51 60 C-51.33 61.32 -51.66 62.64 -52 64 C-52.33 63.34 -52.66 62.68 -53 62 C-52.0625 59.875 -52.0625 59.875 -51 58 C-48.125 58.25 -48.125 58.25 -45 59 C-43.625 61.0625 -43.625 61.0625 -43 63 C-40.69 62.34 -38.38 61.68 -36 61 C-36.0407666 60.29391602 -36.0815332 59.58783203 -36.12353516 58.86035156 C-36.30206109 55.65741731 -36.46370796 52.45384639 -36.625 49.25 C-36.68945312 48.13882813 -36.75390625 47.02765625 -36.8203125 45.8828125 C-36.89765625 44.27792969 -36.89765625 44.27792969 -36.9765625 42.640625 C-37.05511475 41.16384277 -37.05511475 41.16384277 -37.13525391 39.65722656 C-36.99441807 36.8903362 -36.42542979 35.34490497 -35 33 C-36.175625 33.0825 -37.35125 33.165 -38.5625 33.25 C-43.40341795 33.26719687 -46.03474696 31.69637207 -50 29 C-50.66 28.34 -51.32 27.68 -52 27 C-51.46428571 23.46428571 -51.46428571 23.46428571 -50 22 C-42.96596509 21.67941396 -35.92969161 21.68005874 -29 23 C-28.835 22.319375 -28.67 21.63875 -28.5 20.9375 C-24.48313559 13.07114053 -8.91079687 0 0 0 Z " fill="#715140" transform="translate(70,2)"/>
<path d="M0 0 C2.01822917 0.06510417 4.03645833 0.13020833 6.0546875 0.1953125 C6.25771484 1.02675781 6.25771484 1.02675781 6.46484375 1.875 C7.14868671 4.17631583 7.82976925 6.12562304 9.0546875 8.1953125 C12.60331909 9.80666596 12.60331909 9.80666596 16.0546875 10.1953125 C17.63242843 15.94559142 18.12721749 20.23681255 17.0546875 26.1953125 C17.5496875 27.6803125 17.5496875 27.6803125 18.0546875 29.1953125 C16.22357422 29.23398438 16.22357422 29.23398438 14.35546875 29.2734375 C5.42398139 29.55012884 -2.30155749 30.25468572 -10.7890625 33.2734375 C-16.38931458 34.90915469 -22.14115444 35.02127478 -27.9453125 35.1953125 C-27.6153125 34.5353125 -27.2853125 33.8753125 -26.9453125 33.1953125 C-28.5953125 32.2053125 -30.2453125 31.2153125 -31.9453125 30.1953125 C-30.63085563 24.20723121 -27.33340224 21.16101927 -22.9453125 17.1953125 C-25.49179943 19.17591345 -27.88163044 21.12981095 -30.1328125 23.4453125 C-31.9453125 25.1953125 -31.9453125 25.1953125 -33.9453125 25.1953125 C-34.6053125 23.5453125 -35.2653125 21.8953125 -35.9453125 20.1953125 C-35.2853125 20.1953125 -34.6253125 20.1953125 -33.9453125 20.1953125 C-33.4503125 15.7403125 -33.4503125 15.7403125 -32.9453125 11.1953125 C-31.6253125 12.5153125 -30.3053125 13.8353125 -28.9453125 15.1953125 C-28.33042969 14.97875 -27.71554688 14.7621875 -27.08203125 14.5390625 C-26.27378906 14.260625 -25.46554688 13.9821875 -24.6328125 13.6953125 C-23.83230469 13.416875 -23.03179687 13.1384375 -22.20703125 12.8515625 C-19.9453125 12.1953125 -19.9453125 12.1953125 -16.9453125 12.1953125 C-16.6978125 11.5971875 -16.4503125 10.9990625 -16.1953125 10.3828125 C-13.452898 5.58358713 -8.84687881 4.28301667 -3.9453125 2.1953125 C-1.9453125 0.1953125 -1.9453125 0.1953125 0 0 Z " fill="#6D318D" transform="translate(60.9453125,57.8046875)"/>
<path d="M0 0 C-0.66513998 5.68920699 -1.5358456 11.30318138 -2.5625 16.9375 C-3.54801366 21.44888031 -3.54801366 21.44888031 -4 26 C-3.04738281 26.04898437 -2.09476563 26.09796875 -1.11328125 26.1484375 C0.14097656 26.22320313 1.39523438 26.29796875 2.6875 26.375 C3.92886719 26.44460937 5.17023438 26.51421875 6.44921875 26.5859375 C9.69317772 26.96422094 12.06567185 27.61979976 15 29 C14.25 30.9375 14.25 30.9375 13 33 C10.15444445 33.98357246 7.49427052 34.13525435 4.5 34.125 C3.7471875 34.12757812 2.994375 34.13015625 2.21875 34.1328125 C0.026465 34.00158417 -1.89319137 33.60331338 -4 33 C-3.505 35.97 -3.505 35.97 -3 39 C-2.360625 38.649375 -1.72125 38.29875 -1.0625 37.9375 C2.06079588 36.98138902 3.15333857 37.07725428 6.25 37.625 C11.62882519 38.42956377 15.3508347 36.56088774 20 34 C20 35.32 20 36.64 20 38 C18.35546875 39.09765625 18.35546875 39.09765625 16.1875 40.0625 C13.22217401 41.72098321 12.17207309 42.60316695 10.80078125 45.765625 C10.08144308 48.502619 9.46910464 51.20980469 9 54 C6.61328125 54.58984375 6.61328125 54.58984375 4 55 C2.1875 53.5625 2.1875 53.5625 1 52 C1.99 52 2.98 52 4 52 C4 51.34 4 50.68 4 50 C4.66 49.525625 5.32 49.05125 6 48.5625 C6.66 48.046875 7.32 47.53125 8 47 C8 46.01 8 45.02 8 44 C8.66 44 9.32 44 10 44 C9.14254572 41.76666979 9.14254572 41.76666979 7 40 C1.28843102 39.66334248 -4.53944588 41.51075797 -10 43 C-10 45.64 -10 48.28 -10 51 C-10.66 51 -11.32 51 -12 51 C-13.17829199 48.64341603 -13.04414372 47.47426764 -12.87890625 44.8671875 C-12.83056641 44.06152344 -12.78222656 43.25585938 -12.73242188 42.42578125 C-12.67634766 41.58402344 -12.62027344 40.74226563 -12.5625 39.875 C-12.51029297 39.02550781 -12.45808594 38.17601562 -12.40429688 37.30078125 C-12.27448622 35.20020876 -12.1378826 33.10005809 -12 31 C-12.99 31.495 -12.99 31.495 -14 32 C-14.33 32.99 -14.66 33.98 -15 35 C-15.33 34.34 -15.66 33.68 -16 33 C-19.46008142 30.69327905 -21.92481479 30.51865994 -26 30 C-26.66 29.67 -27.32 29.34 -28 29 C-28 28.34 -28 27.68 -28 27 C-29.98 27.66 -31.96 28.32 -34 29 C-33.67 29.33 -33.34 29.66 -33 30 C-33.28730055 32.33944736 -33.61936779 34.6739143 -34 37 C-34.66 36.67 -35.32 36.34 -36 36 C-35.67 35.01 -35.34 34.02 -35 33 C-36.175625 33.0825 -37.35125 33.165 -38.5625 33.25 C-43.40341795 33.26719687 -46.03474696 31.69637207 -50 29 C-50.66 28.34 -51.32 27.68 -52 27 C-51.46428571 23.46428571 -51.46428571 23.46428571 -50 22 C-42.96596509 21.67941396 -35.92969161 21.68005874 -29 23 C-28.835 22.319375 -28.67 21.63875 -28.5 20.9375 C-24.48313559 13.07114053 -8.91079687 0 0 0 Z " fill="#2A1E35" transform="translate(70,2)"/>
<path d="M0 0 C9.44711712 -0.19085085 18.49603193 -0.1974206 27.828125 1.49609375 C32.50093156 2.23844849 37.18360872 2.43961508 41.90625 2.65625 C44.95166128 2.99462903 47.23251531 3.71952201 50 5 C49.25 6.9375 49.25 6.9375 48 9 C45.15444445 9.98357246 42.49427052 10.13525435 39.5 10.125 C38.7471875 10.12757812 37.994375 10.13015625 37.21875 10.1328125 C35.026465 10.00158417 33.10680863 9.60331338 31 9 C31.33 10.98 31.66 12.96 32 15 C32.639375 14.649375 33.27875 14.29875 33.9375 13.9375 C37.06079588 12.98138902 38.15333857 13.07725428 41.25 13.625 C46.62882519 14.42956377 50.3508347 12.56088774 55 10 C55 11.32 55 12.64 55 14 C53.35546875 15.09765625 53.35546875 15.09765625 51.1875 16.0625 C48.22217401 17.72098321 47.17207309 18.60316695 45.80078125 21.765625 C45.08144308 24.502619 44.46910464 27.20980469 44 30 C41.61328125 30.58984375 41.61328125 30.58984375 39 31 C37.1875 29.5625 37.1875 29.5625 36 28 C36.99 28 37.98 28 39 28 C39 27.34 39 26.68 39 26 C39.66 25.525625 40.32 25.05125 41 24.5625 C41.66 24.046875 42.32 23.53125 43 23 C43 22.01 43 21.02 43 20 C43.66 20 44.32 20 45 20 C44.14254572 17.76666979 44.14254572 17.76666979 42 16 C36.28843102 15.66334248 30.46055412 17.51075797 25 19 C25 21.64 25 24.28 25 27 C24.34 27 23.68 27 23 27 C21.82170801 24.64341603 21.95585628 23.47426764 22.12109375 20.8671875 C22.16943359 20.06152344 22.21777344 19.25585938 22.26757812 18.42578125 C22.32365234 17.58402344 22.37972656 16.74226563 22.4375 15.875 C22.48970703 15.02550781 22.54191406 14.17601562 22.59570312 13.30078125 C22.72551378 11.20020876 22.8621174 9.10005809 23 7 C22.01 7.495 22.01 7.495 21 8 C20.67 8.99 20.34 9.98 20 11 C19.67 10.34 19.34 9.68 19 9 C15.53991858 6.69327905 13.07518521 6.51865994 9 6 C8.34 5.67 7.68 5.34 7 5 C7 4.01 7 3.02 7 2 C4.69 1.67 2.38 1.34 0 1 C0 0.67 0 0.34 0 0 Z " fill="#424F85" transform="translate(35,26)"/>
<path d="M0 0 C1.60379341 -0.05416188 3.20811406 -0.09286638 4.8125 -0.125 C5.70582031 -0.14820312 6.59914063 -0.17140625 7.51953125 -0.1953125 C10 0 10 0 13 2 C13.99 1.67 14.98 1.34 16 1 C16.09846262 6.6561303 16.06795668 12.29152292 15.6875 17.9375 C15.62949219 18.81277344 15.57148437 19.68804687 15.51171875 20.58984375 C14.90525802 23.4462275 14.00262063 24.88950987 12 27 C8.06787107 28.38352685 4.09725221 29.25504505 0 30 C-4.21032746 25.11058747 -5.14629 22.11803965 -5.0625 15.75 C-5.05347656 14.85796875 -5.04445312 13.9659375 -5.03515625 13.046875 C-5.02355469 12.37140625 -5.01195312 11.6959375 -5 11 C-2.23735711 10.40267181 0.16032769 10 3 10 C2.34 9.01 1.68 8.02 1 7 C0.01 7 -0.98 7 -2 7 C-0.25 3.125 -0.25 3.125 2 2 C1.34 1.34 0.68 0.68 0 0 Z " fill="#F7E1D3" transform="translate(42,32)"/>
<path d="M0 0 C0.99 0.33 1.98 0.66 3 1 C3 1.66 3 2.32 3 3 C5.31 3 7.62 3 10 3 C10.6875 5.25 10.6875 5.25 11 8 C10.01971384 9.34789347 9.02028865 10.68212715 8 12 C8.35957002 14.10043361 8.35957002 14.10043361 9 16 C9.53109375 15.52949219 10.0621875 15.05898437 10.609375 14.57421875 C11.31578125 13.95160156 12.0221875 13.32898438 12.75 12.6875 C13.79414062 11.76517578 13.79414062 11.76517578 14.859375 10.82421875 C16.85114506 9.12685266 18.88898915 7.54522191 21 6 C19.84322395 9.00761774 18.25612826 10.78567953 15.9375 12.9375 C13.28841144 15.47057008 12.22198019 17.22633671 12 21 C13.65 21.99 15.3 22.98 17 24 C15 26 15 26 12.8359375 26.1953125 C12.02382813 26.17210938 11.21171875 26.14890625 10.375 26.125 C9.55773437 26.10695313 8.74046875 26.08890625 7.8984375 26.0703125 C7.27195312 26.04710938 6.64546875 26.02390625 6 26 C7.20381448 23.50638429 8.45428722 21.31856917 10 19 C7.69 18.34 5.38 17.68 3 17 C2.67 17.33 2.34 17.66 2 18 C-5.39449541 17.40366972 -5.39449541 17.40366972 -9 15 C-9.61930234 11.10724244 -9.11046852 9.2168456 -7.3125 5.6875 C-5 3 -5 3 -2.25 2.125 C-1.5075 2.08375 -0.765 2.0425 0 2 C0 1.34 0 0.68 0 0 Z " fill="#7C5C43" transform="translate(18,67)"/>
<path d="M0 0 C-0.66817836 5.70870833 -1.53834479 11.34509513 -2.5625 17 C-2.70107422 17.77472656 -2.83964844 18.54945312 -2.98242188 19.34765625 C-3.31976121 21.23210355 -3.65961365 23.1161007 -4 25 C-4.33 23.68 -4.66 22.36 -5 21 C-13.415 19.02 -13.415 19.02 -22 17 C-7.66666667 0 -7.66666667 0 0 0 Z " fill="#6A3388" transform="translate(70,2)"/>
<path d="M0 0 C1.60379341 -0.05416188 3.20811406 -0.09286638 4.8125 -0.125 C5.70582031 -0.14820312 6.59914063 -0.17140625 7.51953125 -0.1953125 C10 0 10 0 13 2 C13.99 1.67 14.98 1.34 16 1 C16 4.63 16 8.26 16 12 C15.01 12 14.02 12 13 12 C11.32900023 12.31088368 9.66128463 12.64080332 8 13 C8 13.99 8 14.98 8 16 C6.02 16 4.04 16 2 16 C2 15.01 2 14.02 2 13 C0.35 13 -1.3 13 -3 13 C-3 12.01 -3 11.02 -3 10 C-1.02 10 0.96 10 3 10 C2.34 9.01 1.68 8.02 1 7 C0.01 7 -0.98 7 -2 7 C-0.25 3.125 -0.25 3.125 2 2 C1.34 1.34 0.68 0.68 0 0 Z " fill="#DED5CF" transform="translate(42,32)"/>
<path d="M0 0 C10.57691426 -0.21367504 20.58244479 -0.06142435 31 2 C31 2.66 31 3.32 31 4 C36.28 4.33 41.56 4.66 47 5 C47 5.99 47 6.98 47 8 C31.63364466 9.05974864 13.76608121 7.45143876 0 0 Z " fill="#6D318E" transform="translate(35,26)"/>
<path d="M0 0 C0.66 0.33 1.32 0.66 2 1 C-0.97 3.97 -0.97 3.97 -4 7 C-3.18015625 7.19335938 -2.3603125 7.38671875 -1.515625 7.5859375 C0.10085937 7.97652344 0.10085937 7.97652344 1.75 8.375 C2.81734375 8.63023438 3.8846875 8.88546875 4.984375 9.1484375 C7.55852722 9.87533541 9.67600186 10.7026224 12 12 C12 13.98 12 15.96 12 18 C0.12 16.02 0.12 16.02 -12 14 C-10.14223135 9.35557838 -9.58319629 8.24360726 -6 5.3125 C-5.29875 4.73113281 -4.5975 4.14976563 -3.875 3.55078125 C-2.946875 2.78314453 -2.946875 2.78314453 -2 2 C-1.34 1.34 -0.68 0.68 0 0 Z " fill="#262129" transform="translate(53,11)"/>
<path d="M0 0 C2.5 0.1875 2.5 0.1875 4.5 1.1875 C5.125 4.25 5.125 4.25 5.5 7.1875 C4.860625 7.31125 4.22125 7.435 3.5625 7.5625 C2.881875 7.76875 2.20125 7.975 1.5 8.1875 C1.17 8.8475 0.84 9.5075 0.5 10.1875 C1.82 9.8575 3.14 9.5275 4.5 9.1875 C4.83 10.5075 5.16 11.8275 5.5 13.1875 C2.86 13.5175 0.22 13.8475 -2.5 14.1875 C-2.41621094 14.9609375 -2.33242188 15.734375 -2.24609375 16.53125 C-1.64770144 22.65151564 -1.45065422 28.1246133 -2.5 34.1875 C-5.02775351 30.39586973 -4.72443035 27.37875969 -4.625 23 C-4.61597656 22.25041016 -4.60695312 21.50082031 -4.59765625 20.72851562 C-4.57412578 18.88137346 -4.53825561 17.03439588 -4.5 15.1875 C-5.16 15.1875 -5.82 15.1875 -6.5 15.1875 C-6.5 13.5375 -6.5 11.8875 -6.5 10.1875 C-5.51 10.1875 -4.52 10.1875 -3.5 10.1875 C-3.17 7.8775 -2.84 5.5675 -2.5 3.1875 C-3.16 2.8575 -3.82 2.5275 -4.5 2.1875 C-2.5 0.1875 -2.5 0.1875 0 0 Z " fill="#D4CAC4" transform="translate(39.5,28.8125)"/>
<path d="M0 0 C0.66 0.33 1.32 0.66 2 1 C1.4375 2.75 1.4375 2.75 0 5 C-1.134375 5.515625 -2.26875 6.03125 -3.4375 6.5625 C-6.21150498 7.97839837 -6.90206078 8.76501388 -8.125 11.69921875 C-8.85931889 14.45644495 -9.49180219 17.19281211 -10 20 C-12.38671875 20.58984375 -12.38671875 20.58984375 -15 21 C-16.8125 19.5625 -16.8125 19.5625 -18 18 C-17.01 18 -16.02 18 -15 18 C-15 17.34 -15 16.68 -15 16 C-14.34 15.525625 -13.68 15.05125 -13 14.5625 C-12.34 14.046875 -11.68 13.53125 -11 13 C-11 12.01 -11 11.02 -11 10 C-10.34 10 -9.68 10 -9 10 C-9.85745428 7.76666979 -9.85745428 7.76666979 -12 6 C-16.1783145 5.84438307 -20.05446584 6.68482195 -24 8 C-24 6.35 -24 4.7 -24 3 C-23.34 3.66 -22.68 4.32 -22 5 C-21.360625 4.649375 -20.72125 4.29875 -20.0625 3.9375 C-16.93237535 2.97929858 -15.79842133 3.0813961 -12.6875 3.625 C-8.08911687 4.31706435 -5.52889778 3.20764631 -1.62890625 0.8125 C-1.09136719 0.544375 -0.55382812 0.27625 0 0 Z " fill="#544438" transform="translate(89,36)"/>
<path d="M0 0 C1.234375 1.625 1.234375 1.625 1.234375 3.625 C0.574375 3.625 -0.085625 3.625 -0.765625 3.625 C-1.013125 4.264375 -1.260625 4.90375 -1.515625 5.5625 C-2.765625 7.625 -2.765625 7.625 -4.890625 8.375 C-5.81875 8.49875 -5.81875 8.49875 -6.765625 8.625 C-7.425625 7.635 -8.085625 6.645 -8.765625 5.625 C-9.69375 6.45 -10.621875 7.275 -11.578125 8.125 C-14.390625 10.625 -14.390625 10.625 -17.765625 10.625 C-18.203125 7.9375 -18.203125 7.9375 -17.765625 4.625 C-14.05331583 0.21225513 -9.31012393 -1.00638473 -3.78125 -1.625 C-1.765625 -1.375 -1.765625 -1.375 0 0 Z " fill="#6F378C" transform="translate(78.765625,42.375)"/>
<path d="M0 0 C0.33 0 0.66 0 1 0 C1.495 7.92 1.495 7.92 2 16 C2.33 14.35 2.66 12.7 3 11 C3.5775 11.763125 4.155 12.52625 4.75 13.3125 C6.71703093 15.66200917 8.48476744 17.29323505 11 19 C8.60669546 21.39330454 7.94874331 21.23249189 4.6875 21.375 C0.3277753 21.7464878 -1.76913417 22.96494422 -5 26 C-5.66 26 -6.32 26 -7 26 C-7.66 24.02 -8.32 22.04 -9 20 C-9.66 20.33 -10.32 20.66 -11 21 C-11.66 20.01 -12.32 19.02 -13 18 C-13.66 18 -14.32 18 -15 18 C-15.33 19.32 -15.66 20.64 -16 22 C-16.33 21.34 -16.66 20.68 -17 20 C-16.0625 17.875 -16.0625 17.875 -15 16 C-12.125 16.25 -12.125 16.25 -9 17 C-7.625 19.0625 -7.625 19.0625 -7 21 C-4.69 20.34 -2.38 19.68 0 19 C0 12.73 0 6.46 0 0 Z " fill="#282332" transform="translate(34,44)"/>
<path d="M0 0 C0 3 0 3 -1.49609375 4.6484375 C-2.13675781 5.21820313 -2.77742188 5.78796875 -3.4375 6.375 C-6.31910957 9.11136715 -7.87431945 10.85254183 -8 15 C-6.35 15.99 -4.7 16.98 -3 18 C-5 20 -5 20 -7.1640625 20.1953125 C-7.97617187 20.17210938 -8.78828125 20.14890625 -9.625 20.125 C-10.44226563 20.10695313 -11.25953125 20.08890625 -12.1015625 20.0703125 C-12.72804688 20.04710938 -13.35453125 20.02390625 -14 20 C-12.79618552 17.50638429 -11.54571278 15.31856917 -10 13 C-10.804375 12.7525 -11.60875 12.505 -12.4375 12.25 C-15 11 -15 11 -15.8125 8.875 C-15.874375 8.25625 -15.93625 7.6375 -16 7 C-14.68 6.67 -13.36 6.34 -12 6 C-11.67 7.32 -11.34 8.64 -11 10 C-9.72799029 8.89718873 -8.45744147 7.79269231 -7.1875 6.6875 C-6.47980469 6.07261719 -5.77210937 5.45773438 -5.04296875 4.82421875 C-3.29863261 3.26665665 -1.63221959 1.67341125 0 0 Z " fill="#3C2649" transform="translate(38,73)"/>
<path d="M0 0 C1.32 1.32 2.64 2.64 4 4 C4.62648438 3.77183594 5.25296875 3.54367188 5.8984375 3.30859375 C6.71570312 3.02113281 7.53296875 2.73367187 8.375 2.4375 C9.59316406 2.00244141 9.59316406 2.00244141 10.8359375 1.55859375 C13 1 13 1 15 2 C14.484375 2.37125 13.96875 2.7425 13.4375 3.125 C9.59043795 6.0842785 5.74263164 9.15032711 2.41015625 12.6875 C1 14 1 14 -1 14 C-1.66 12.35 -2.32 10.7 -3 9 C-2.34 9 -1.68 9 -1 9 C-0.67 6.03 -0.34 3.06 0 0 Z " fill="#6B3488" transform="translate(28,69)"/>
<path d="M0 0 C0.99 0.33 1.98 0.66 3 1 C3 1.66 3 2.32 3 3 C5.31 3 7.62 3 10 3 C10.75 5.25 10.75 5.25 11 8 C9.1875 10.3125 9.1875 10.3125 7 12 C6.34 12 5.68 12 5 12 C4.67 11.01 4.34 10.02 4 9 C3.01 8.67 2.02 8.34 1 8 C0.67 9.32 0.34 10.64 0 12 C-0.33 11.01 -0.66 10.02 -1 9 C-0.01 8.01 0.98 7.02 2 6 C1.01 5.01 0.02 4.02 -1 3 C-0.67 2.01 -0.34 1.02 0 0 Z " fill="#694F3B" transform="translate(18,67)"/>
<path d="M0 0 C1.94140625 0.71875 1.94140625 0.71875 4 2 C4.65234375 4.09375 4.65234375 4.09375 4.9375 6.5 C5.30800757 8.89999917 5.30800757 8.89999917 6 11 C8.44896633 12.53136956 8.44896633 12.53136956 11 13 C12.4783226 15.95664519 12.06032783 18.74229737 12 22 C11.67 22 11.34 22 11 22 C10.67 19.36 10.34 16.72 10 14 C7.69 13.67 5.38 13.34 3 13 C2.77957031 12.15115234 2.77957031 12.15115234 2.5546875 11.28515625 C1.86380166 9.02588015 1.18251078 7.04881905 0 5 C-3.07797583 3.85968434 -3.07797583 3.85968434 -6 4 C-4 2.66666667 -2 1.33333333 0 0 Z " fill="#382846" transform="translate(67,54)"/>
<path d="M0 0 C2.22889496 -0.05428973 4.45817471 -0.09292338 6.6875 -0.125 C8.54955078 -0.15980469 8.54955078 -0.15980469 10.44921875 -0.1953125 C13.81237857 -0.01032021 15.9985587 0.54232105 19 2 C18.25 3.9375 18.25 3.9375 17 6 C13.52468778 7.3134396 10.04556167 7.06628554 6.375 7 C2.02666011 6.76378051 2.02666011 6.76378051 -2 8 C-2 7.01 -2 6.02 -2 5 C3.94 5 9.88 5 16 5 C16 4.01 16 3.02 16 2 C10.72 1.67 5.44 1.34 0 1 C0 0.67 0 0.34 0 0 Z " fill="#45374F" transform="translate(66,29)"/>
<path d="M0 0 C0.33 0 0.66 0 1 0 C1.1967332 2.8329581 1.38259641 5.66596323 1.5625 8.5 C1.61857422 9.29148437 1.67464844 10.08296875 1.73242188 10.8984375 C2.05189484 16.09519779 1.79686914 20.85281562 1 26 C-1.52775351 22.20836973 -1.22443035 19.19125969 -1.125 14.8125 C-1.11597656 14.06291016 -1.10695312 13.31332031 -1.09765625 12.54101562 C-1.07412578 10.69387346 -1.03825561 8.84689588 -1 7 C-1.66 7 -2.32 7 -3 7 C-3 5.35 -3 3.7 -3 2 C-2.01 2 -1.02 2 0 2 C0 1.34 0 0.68 0 0 Z " fill="#525363" transform="translate(36,37)"/>
<path d="M0 0 C7.4596963 0.74596963 14.68951218 2.36746129 22 4 C21.01 4.495 21.01 4.495 20 5 C20.33 6.65 20.66 8.3 21 10 C20.34 10 19.68 10 19 10 C19 8.35 19 6.7 19 5 C18.34 5 17.68 5 17 5 C17 8.3 17 11.6 17 15 C16.67 15 16.34 15 16 15 C16 11.37 16 7.74 16 4 C15.01 4.495 15.01 4.495 14 5 C13.67 5.99 13.34 6.98 13 8 C12.67 7.34 12.34 6.68 12 6 C8.53991858 3.69327905 6.07518521 3.51865994 2 3 C1.34 2.67 0.68 2.34 0 2 C0 1.34 0 0.68 0 0 Z " fill="#3F394E" transform="translate(42,29)"/>
<path d="M0 0 C-0.11398665 1.62580966 -0.24155659 3.25067157 -0.375 4.875 C-0.44460937 5.77992187 -0.51421875 6.68484375 -0.5859375 7.6171875 C-1 10 -1 10 -3 12 C-3.99 12 -4.98 12 -6 12 C-6 10.02 -6 8.04 -6 6 C-7.65 6 -9.3 6 -11 6 C-10.443125 5.7525 -9.88625 5.505 -9.3125 5.25 C-6.84535202 4.00800235 -6.84535202 4.00800235 -4.375 1.875 C-2 0 -2 0 0 0 Z " fill="#3A3C65" transform="translate(61,58)"/>
<path d="M0 0 C1.5 1.375 1.5 1.375 3 3 C3 3.66 3 4.32 3 5 C2.34 5 1.68 5 1 5 C0.7525 5.639375 0.505 6.27875 0.25 6.9375 C-1 9 -1 9 -3.125 9.75 C-4.053125 9.87375 -4.053125 9.87375 -5 10 C-7 7 -7 7 -7 4 C-6.34 4 -5.68 4 -5 4 C-5 3.34 -5 2.68 -5 2 C-3.35 1.34 -1.7 0.68 0 0 Z " fill="#CEBEB3" transform="translate(77,41)"/>
<path d="M0 0 C2.5625 1.0625 2.5625 1.0625 5 3 C5.8125 6.1875 5.8125 6.1875 6 9 C2.71023192 10.09658936 1.28696233 9.79953138 -2 9 C-2 8.01 -2 7.02 -2 6 C-2.66 5.67 -3.32 5.34 -4 5 C-2.25 1.125 -2.25 1.125 0 0 Z " fill="#C0B4AC" transform="translate(21,61)"/>
<path d="M0 0 C-0.33 1.65 -0.66 3.3 -1 5 C-2.65 5.33 -4.3 5.66 -6 6 C-6 6.99 -6 7.98 -6 9 C-7.98 9 -9.96 9 -12 9 C-12 8.01 -12 7.02 -12 6 C-10.68 5.67 -9.36 5.34 -8 5 C-7.67 3.35 -7.34 1.7 -7 0 C-2.25 -1.125 -2.25 -1.125 0 0 Z " fill="#989291" transform="translate(56,39)"/>
<path d="M0 0 C2.875 0.25 2.875 0.25 6 1 C7.375 3.0625 7.375 3.0625 8 5 C9.98 4.34 11.96 3.68 14 3 C14 4.32 14 5.64 14 7 C10.78571429 10 10.78571429 10 8 10 C7.34 8.02 6.68 6.04 6 4 C5.01 4.495 5.01 4.495 4 5 C3.34 4.01 2.68 3.02 2 2 C1.34 2 0.68 2 0 2 C-0.33 3.32 -0.66 4.64 -1 6 C-1.33 5.34 -1.66 4.68 -2 4 C-1.0625 1.875 -1.0625 1.875 0 0 Z " fill="#462C4B" transform="translate(19,60)"/>
<path d="M0 0 C1.65 1.32 3.3 2.64 5 4 C5.66 2.68 6.32 1.36 7 0 C7.99 0.99 8.98 1.98 10 3 C8.35 3.66 6.7 4.32 5 5 C5 5.66 5 6.32 5 7 C3.02 7.33 1.04 7.66 -1 8 C-1 7.01 -1 6.02 -1 5 C-2.32 5.33 -3.64 5.66 -5 6 C-3.35 4.02 -1.7 2.04 0 0 Z " fill="#62455D" transform="translate(69,47)"/>
<path d="M0 0 C0.66 0 1.32 0 2 0 C2.25 6.625 2.25 6.625 0 10 C-4.75 9.25 -4.75 9.25 -7 7 C-6.01 7 -5.02 7 -4 7 C-4 6.34 -4 5.68 -4 5 C-2.66666667 4 -1.33333333 3 0 2 C0 1.34 0 0.68 0 0 Z " fill="#2C1C33" transform="translate(78,47)"/>
<path d="M0 0 C2.5 0.1875 2.5 0.1875 4.5 1.1875 C5.125 4.25 5.125 4.25 5.5 7.1875 C4.88125 7.001875 4.2625 6.81625 3.625 6.625 C1.45839822 5.95063824 1.45839822 5.95063824 -0.5 7.1875 C-0.5 6.5275 -0.5 5.8675 -0.5 5.1875 C-1.16 5.1875 -1.82 5.1875 -2.5 5.1875 C-2.5 4.5275 -2.5 3.8675 -2.5 3.1875 C-3.16 2.8575 -3.82 2.5275 -4.5 2.1875 C-2.5 0.1875 -2.5 0.1875 0 0 Z " fill="#404B72" transform="translate(39.5,28.8125)"/>
<path d="M0 0 C0.66 0.66 1.32 1.32 2 2 C2.680625 1.649375 3.36125 1.29875 4.0625 0.9375 C7.75951503 -0.24239841 10.24434265 0.14966249 14 1 C14.66 1.66 15.32 2.32 16 3 C15.01 3 14.02 3 13 3 C11.33194177 3.12894529 9.66526278 3.27642547 8 3.4375 C6.700625 3.55931641 6.700625 3.55931641 5.375 3.68359375 C2.85640781 3.94332068 2.85640781 3.94332068 0 5 C0 3.35 0 1.7 0 0 Z " fill="#412F4A" transform="translate(65,39)"/>
<path d="M0 0 C0.66 0 1.32 0 2 0 C2.66 0.66 3.32 1.32 4 2 C3.96712417 4.72869407 3.43602229 7.2966618 3 10 C1.68 10.33 0.36 10.66 -1 11 C-1.08912219 7.16774573 -0.87867729 3.73437848 0 0 Z " fill="#565B78" transform="translate(62,34)"/>
<path d="M0 0 C1.5 1.375 1.5 1.375 3 3 C3 3.66 3 4.32 3 5 C-1.62 5 -6.24 5 -11 5 C-11 4.34 -11 3.68 -11 3 C-7.37 3 -3.74 3 0 3 C0 2.01 0 1.02 0 0 Z " fill="#19181B" transform="translate(76,82)"/>
<path d="M0 0 C-1.92530414 3.99870861 -3.84296719 7.84296719 -7 11 C-5.94230769 0 -5.94230769 0 0 0 Z " fill="#524032" transform="translate(16,70)"/>
<path d="M0 0 C1.5 1.25 1.5 1.25 3 3 C3 4.32 3 5.64 3 7 C2.01 7.33 1.02 7.66 0 8 C-0.66 7.67 -1.32 7.34 -2 7 C-2.625 3.9375 -2.625 3.9375 -3 1 C-2.34 1.66 -1.68 2.32 -1 3 C-0.67 2.01 -0.34 1.02 0 0 Z " fill="#A79A90" transform="translate(24,63)"/>
<path d="M0 0 C0 2.31 0 4.62 0 7 C0.66 7.33 1.32 7.66 2 8 C0.68 8.33 -0.64 8.66 -2 9 C-2 7.02 -2 5.04 -2 3 C-3.65 3 -5.3 3 -7 3 C-1 0 -1 0 0 0 Z " fill="#3E2C50" transform="translate(57,61)"/>
<path d="M0 0 C1.98 0.99 3.96 1.98 6 3 C4 5 4 5 0.375 5.125 C-0.73875 5.08375 -1.8525 5.0425 -3 5 C-2.01 3.35 -1.02 1.7 0 0 Z " fill="#1D1B20" transform="translate(29,88)"/>
<path d="M0 0 C5.75 0.75 5.75 0.75 8 3 C7.67 3.99 7.34 4.98 7 6 C6.67 5.34 6.34 4.68 6 4 C5.01 4.495 5.01 4.495 4 5 C3.34 4.01 2.68 3.02 2 2 C1.34 2 0.68 2 0 2 C-0.33 3.32 -0.66 4.64 -1 6 C-1.33 5.34 -1.66 4.68 -2 4 C-1.0625 1.875 -1.0625 1.875 0 0 Z " fill="#54504D" transform="translate(19,60)"/>
<path d="M0 0 C0.66 0.33 1.32 0.66 2 1 C0.54728878 4.75283733 0.54728878 4.75283733 -1.9375 5.875 C-4 6 -4 6 -7 4 C-1.7265625 0.77734375 -1.7265625 0.77734375 0 0 Z " fill="#423831" transform="translate(89,36)"/>
<path d="M0 0 C2.0625 0.4375 2.0625 0.4375 4 1 C4.33 2.65 4.66 4.3 5 6 C3.35 5.67 1.7 5.34 0 5 C-0.5625 3.0625 -0.5625 3.0625 -1 1 C-0.67 0.67 -0.34 0.34 0 0 Z " fill="#231727" transform="translate(23,79)"/>
<path d="M0 0 C3 3 3 3 3.3125 5.5625 C3 8 3 8 1 10 C-1.125 9.625 -1.125 9.625 -3 9 C-2.34 9 -1.68 9 -1 9 C-0.67 6.03 -0.34 3.06 0 0 Z " fill="#DDC9BC" transform="translate(28,69)"/>
<path d="M0 0 C0 0.99 0 1.98 0 3 C-2.31 3.33 -4.62 3.66 -7 4 C-6.67 2.68 -6.34 1.36 -6 0 C-2.25 -1.125 -2.25 -1.125 0 0 Z " fill="#1A1B1C" transform="translate(45,39)"/>
<path d="M0 0 C0.99 0 1.98 0 3 0 C3 3.63 3 7.26 3 11 C2.67 11 2.34 11 2 11 C2 9.35 2 7.7 2 6 C0.68 6 -0.64 6 -2 6 C-2 5.34 -2 4.68 -2 4 C-1.01 4 -0.02 4 1 4 C0.67 2.68 0.34 1.36 0 0 Z " fill="#CDC1B6" transform="translate(55,33)"/>
<path d="M0 0 C0 0.99 0 1.98 0 3 C-2.31 3 -4.62 3 -7 3 C-7 2.01 -7 1.02 -7 0 C-2.25 -1.125 -2.25 -1.125 0 0 Z " fill="#1B1A1A" transform="translate(56,39)"/>
<path d="M0 0 C0.66 0.33 1.32 0.66 2 1 C1.195625 1.763125 0.39125 2.52625 -0.4375 3.3125 C-3.16799024 5.79430898 -3.16799024 5.79430898 -4 9 C-3.34 9.33 -2.68 9.66 -2 10 C-2.99 10 -3.98 10 -5 10 C-5.3125 7.25 -5.3125 7.25 -5 4 C-2.5 1.625 -2.5 1.625 0 0 Z " fill="#612E7F" transform="translate(66,43)"/>
<path d="M0 0 C0.91007812 0.10183594 1.82015625 0.20367187 2.7578125 0.30859375 C3.45648438 0.39238281 4.15515625 0.47617188 4.875 0.5625 C4.875 0.8925 4.875 1.2225 4.875 1.5625 C3.204375 1.7790625 3.204375 1.7790625 1.5 2 C-1.94642047 2.34622035 -1.94642047 2.34622035 -4.125 3.5625 C-5.115 2.5725 -6.105 1.5825 -7.125 0.5625 C-4.50184968 -0.74907516 -2.89466564 -0.33399988 0 0 Z " fill="#572871" transform="translate(36.125,86.4375)"/>
<path d="M0 0 C0.66 0.33 1.32 0.66 2 1 C3.26229508 5.47540984 3.26229508 5.47540984 2 8 C1.34 8 0.68 8 0 8 C-0.38063221 5.6739143 -0.71269945 3.33944736 -1 1 C-0.67 0.67 -0.34 0.34 0 0 Z " fill="#3B3856" transform="translate(69,58)"/>
<path d="M0 0 C0.99 0.33 1.98 0.66 3 1 C2.67 4.3 2.34 7.6 2 11 C-0.67927341 6.98108988 -0.15601248 4.75838077 0 0 Z " fill="#465283" transform="translate(35,52)"/>
<path d="M0 0 C1.258125 0.12375 2.51625 0.2475 3.8125 0.375 C4.87404297 0.47941406 4.87404297 0.47941406 5.95703125 0.5859375 C8 1 8 1 11 3 C9.54176788 3.0270043 8.08339325 3.04639787 6.625 3.0625 C5.81289063 3.07410156 5.00078125 3.08570313 4.1640625 3.09765625 C2 3 2 3 0 2 C0 1.34 0 0.68 0 0 Z " fill="#282542" transform="translate(42,29)"/>
<path d="M0 0 C-0.33 2.64 -0.66 5.28 -1 8 C-1.33 8 -1.66 8 -2 8 C-2 6.02 -2 4.04 -2 2 C-3.32 2.33 -4.64 2.66 -6 3 C-3.375 0 -3.375 0 0 0 Z " fill="#412F4C" transform="translate(70,2)"/>
<path d="M0 0 C3.3 0 6.6 0 10 0 C9.67 1.32 9.34 2.64 9 4 C8.01 4.495 8.01 4.495 7 5 C7 3.68 7 2.36 7 1 C4.69 1 2.38 1 0 1 C0 0.67 0 0.34 0 0 Z " fill="#B3A9A1" transform="translate(42,32)"/>
<path d="M0 0 C1.98 0.99 1.98 0.99 4 2 C4 2.99 4 3.98 4 5 C2.68 5 1.36 5 0 5 C0 3.35 0 1.7 0 0 Z " fill="#66377E" transform="translate(38,59)"/>
<path d="M0 0 C2.31 0 4.62 0 7 0 C7 0.99 7 1.98 7 3 C2.25 2.25 2.25 2.25 0 0 Z " fill="#412B50" transform="translate(71,54)"/>
<path d="M0 0 C0.33 1.32 0.66 2.64 1 4 C1.66 4 2.32 4 3 4 C3 5.65 3 7.3 3 9 C2.34 9 1.68 9 1 9 C-0.4783226 6.04335481 -0.06032783 3.25770263 0 0 Z " fill="#565A7B" transform="translate(57,44)"/>
<path d="M0 0 C0.66 0.33 1.32 0.66 2 1 C1 4 1 4 -1 5 C-2.32 4.01 -3.64 3.02 -5 2 C-2.625 0.9375 -2.625 0.9375 0 0 Z " fill="#DAC8BF" transform="translate(77,41)"/>
<path d="M0 0 C2.00720923 0.28674418 4.0085944 0.61866701 6 1 C6 1.99 6 2.98 6 4 C4.68 4 3.36 4 2 4 C1.67 3.34 1.34 2.68 1 2 C0.34 1.67 -0.32 1.34 -1 1 C-0.67 0.67 -0.34 0.34 0 0 Z " fill="#7E7772" transform="translate(38,32)"/>
</svg>
