<?xml version="1.0" encoding="UTF-8"?>
<svg version="1.1" xmlns="http://www.w3.org/2000/svg" width="16" height="16">
<path d="M0 0 C5.28 0 10.56 0 16 0 C16 5.28 16 10.56 16 16 C10.72 16 5.44 16 0 16 C0 10.72 0 5.44 0 0 Z " fill="#F1F0F0" transform="translate(0,0)"/>
<path d="M0 0 C0.66 0 1.32 0 2 0 C2 1.32 2 2.64 2 4 C3.32 4.33 4.64 4.66 6 5 C5.505 6.11375 5.505 6.11375 5 7.25 C3.77217129 10.13883312 3.77217129 10.13883312 4 14 C-0.455 14.495 -0.455 14.495 -5 15 C-5 14.34 -5 13.68 -5 13 C-5.66 13 -6.32 13 -7 13 C-6.67 11.68 -6.34 10.36 -6 9 C-4.5459375 8.814375 -4.5459375 8.814375 -3.0625 8.625 C-2.051875 8.41875 -1.04125 8.2125 0 8 C0.33 7.34 0.66 6.68 1 6 C-0.4540625 5.814375 -0.4540625 5.814375 -1.9375 5.625 C-2.948125 5.41875 -3.95875 5.2125 -5 5 C-5.33 4.34 -5.66 3.68 -6 3 C-5.195625 2.690625 -4.39125 2.38125 -3.5625 2.0625 C-1.10919595 1.23664655 -1.10919595 1.23664655 0 0 Z " fill="#7E5B83" transform="translate(9,1)"/>
<path d="M0 0 C0.66 0 1.32 0 2 0 C2 1.32 2 2.64 2 4 C2.99 4.33 3.98 4.66 5 5 C4.01 5 3.02 5 2 5 C1.67 5.99 1.34 6.98 1 8 C1 7.34 1 6.68 1 6 C-0.4540625 5.814375 -0.4540625 5.814375 -1.9375 5.625 C-2.948125 5.41875 -3.95875 5.2125 -5 5 C-5.33 4.34 -5.66 3.68 -6 3 C-5.195625 2.690625 -4.39125 2.38125 -3.5625 2.0625 C-1.10919595 1.23664655 -1.10919595 1.23664655 0 0 Z " fill="#604970" transform="translate(9,1)"/>
<path d="M0 0 C0.66 0 1.32 0 2 0 C2 2.97 2 5.94 2 9 C-0.64 9 -3.28 9 -6 9 C-6 8.67 -6 8.34 -6 8 C-4.35 8 -2.7 8 -1 8 C-1.309375 6.8553125 -1.309375 6.8553125 -1.625 5.6875 C-2 3 -2 3 0 0 Z " fill="#FAFAFA" transform="translate(14,7)"/>
</svg>
